<?xml version="1.0" standalone="no"?>
<!DOCTYPE svg PUBLIC "-//W3C//DTD SVG 1.1//EN" "http://www.w3.org/Graphics/SVG/1.1/DTD/svg11.dtd" >
<svg xmlns="http://www.w3.org/2000/svg">
<metadata></metadata>
<defs>
<font id="isidora_altregular" horiz-adv-x="1306" >
<font-face units-per-em="2048" ascent="1638" descent="-410" />
<missing-glyph horiz-adv-x="524" />
<glyph unicode="&#xfb01;" horiz-adv-x="1030" d="M39 938v86h178v39q0 179 80.5 266.5t214.5 87.5q74 0 139 -35l2 -10l-35 -67l-8 -5q-49 27 -98 27q-195 0 -195 -264v-39h529v-864q0 -94 55 -94q29 0 45 16l8 -2l25 -68l-6 -10q-36 -27 -88 -27q-66 0 -103 44t-37 116v803h-428v-1112q0 -72 -36.5 -115t-104.5 -43 q-57 0 -88 27l-4 8l22 68l9 4q19 -19 47 -19q55 0 55 97v1085h-178zM700 1227q0 40 28.5 68t68.5 28q38 0 66 -28t28 -68t-28 -68.5t-66 -28.5q-40 0 -68.5 28.5t-28.5 68.5z" />
<glyph unicode="&#xfb02;" horiz-adv-x="1040" d="M39 938v86h178v39q0 169 92 261.5t250 92.5q135 0 214 -62.5t79 -158.5v-1036q0 -94 55 -94q28 0 47 16l9 -2l22 -68l-4 -10q-36 -27 -88 -27q-67 0 -104 44t-37 116v1077q-18 54 -69.5 84.5t-129.5 30.5q-108 0 -172 -68t-64 -196v-39h326v-86h-326v-1112 q0 -72 -36.5 -115t-104.5 -43q-57 0 -88 27l-4 8l22 68l9 4q19 -19 47 -19q55 0 55 97v1085h-178z" />
<glyph horiz-adv-x="0" />
<glyph horiz-adv-x="682" />
<glyph unicode=" "  horiz-adv-x="524" />
<glyph unicode="&#x09;" horiz-adv-x="524" />
<glyph unicode="&#xa0;" horiz-adv-x="524" />
<glyph unicode="!" horiz-adv-x="442" d="M125 57q0 40 28 68.5t68 28.5t68 -28.5t28 -68.5t-28 -68t-68 -28t-68 28t-28 68zM162 1325l6 6h104l7 -6l-13 -1051l-10 -6h-72l-8 6z" />
<glyph unicode="&#x22;" horiz-adv-x="595" d="M129 1331h109l-25 -477h-59zM358 1331h109l-25 -477h-59z" />
<glyph unicode="#" horiz-adv-x="1161" d="M74 395l12 86h246l51 369h-252l12 86h252l54 393h90l-54 -393h308l53 393h90l-53 -393h207l-13 -86h-209l-49 -369h211l-12 -86h-211l-55 -395h-90l55 395h-307l-56 -395h-90l55 395h-245zM422 481h307l49 369h-305z" />
<glyph unicode="$" horiz-adv-x="892" d="M76 317v9l65 51h9q45 -72 120 -114t174 -42q113 0 184.5 52.5t71.5 138.5q0 23 -5 43t-17.5 38t-23 31.5t-34.5 29t-38 24.5t-46.5 24t-47 21t-53 21.5t-52.5 21.5q-59 24 -96 43.5t-78.5 51.5t-61.5 75t-20 98q0 110 77.5 183.5t201.5 84.5v150h90v-152 q85 -10 155.5 -52t112.5 -104v-8l-66 -51h-8q-92 127 -250 127q-94 0 -152.5 -47.5t-58.5 -120.5q0 -67 50 -109t149 -81q15 -6 49.5 -20t53 -21.5t50.5 -22t50.5 -25.5t45 -28t42 -32.5t34 -37.5t28 -44t16 -50t6.5 -59q0 -119 -86 -194.5t-221 -86.5v-156h-90v156 q-106 9 -190.5 58t-139.5 126z" />
<glyph unicode="%" horiz-adv-x="1542" d="M84 971q0 173 79 279t206 106q128 0 207 -106t79 -279q0 -172 -79.5 -277.5t-206.5 -105.5t-206 105.5t-79 277.5zM176 971q0 -134 52.5 -215.5t140.5 -81.5t141 81.5t53 215.5q0 135 -53 217t-141 82t-140.5 -82t-52.5 -217zM207 12l1022 1319h94l4 -12l-1020 -1319h-96 zM889 360q0 173 79.5 278t207.5 105q127 0 205.5 -105.5t78.5 -277.5q0 -173 -79 -279t-205 -106q-128 0 -207.5 106t-79.5 279zM981 358q0 -134 53.5 -215.5t141.5 -81.5q87 0 139.5 81.5t52.5 215.5q0 135 -52.5 217t-139.5 82q-88 0 -141.5 -82t-53.5 -217z" />
<glyph unicode="&#x26;" horiz-adv-x="1185" d="M94 408q0 141 77 248t183 157q-50 82 -74 143.5t-24 122.5q0 126 91 201.5t231 75.5q180 0 301 -150v-8l-66 -57h-8q-92 121 -225 121q-93 -2 -154 -51.5t-61 -135.5q0 -40 14 -84t47 -100t57 -92t74 -107l336 -463q59 83 59 189q0 67 -25 131.5t-63 107.5v9l78 53h8 q111 -135 111 -299q0 -155 -103 -279q34 -42 60 -60t53 -18q29 0 53 15l9 -6l16 -70l-2 -6q-37 -21 -80 -21q-91 0 -182 101q-135 -101 -318 -101q-132 0 -240 54.5t-170.5 154t-62.5 224.5zM201 412q0 -150 104 -245t262 -95q144 0 256 84l-352 485l-63 92 q-89 -39 -148 -123.5t-59 -197.5z" />
<glyph unicode="'" horiz-adv-x="366" d="M129 1331h109l-25 -477h-59z" />
<glyph unicode="(" horiz-adv-x="546" d="M100 573q0 229 78 454t223 419h117q-149 -184 -228 -410t-79 -463t79 -462.5t228 -409.5h-117q-145 194 -223 418.5t-78 453.5z" />
<glyph unicode=")" horiz-adv-x="546" d="M31 -299q149 184 228 409.5t79 462.5t-79 463t-228 410h116q146 -195 224 -419.5t78 -453.5t-78 -453t-224 -419h-116z" />
<glyph unicode="*" horiz-adv-x="921" d="M119 854l258 150l-258 147l43 72l258 -148v297h82v-297l258 150l43 -74l-258 -147l258 -150l-43 -72l-258 150v-299h-82v299l-258 -150z" />
<glyph unicode="+" horiz-adv-x="1103" d="M80 575v82h428v406h90v-406h426v-82h-426v-413h-90v413h-428z" />
<glyph unicode="," horiz-adv-x="442" d="M90 -244q45 62 69.5 128t26.5 98q-28 9 -45.5 34t-17.5 56q0 40 28 68t68 28q41 0 68.5 -28.5t27.5 -71.5q4 -142 -165 -359h-9l-51 41v6z" />
<glyph unicode="-" horiz-adv-x="964" d="M139 571v86h686v-86h-686z" />
<glyph unicode="." horiz-adv-x="432" d="M121 86q0 40 28 68t68 28t68 -28t28 -68t-28 -68t-68 -28t-68 28t-28 68z" />
<glyph unicode="/" horiz-adv-x="1019" d="M51 -98l821 1540h91l8 -10l-821 -1541h-89z" />
<glyph unicode="0" horiz-adv-x="1222" d="M111 666q0 310 137.5 500t361.5 190q226 0 364 -190t138 -500q0 -205 -62.5 -362t-176.5 -243t-263 -86q-224 0 -361.5 190t-137.5 501zM215 666q0 -265 108.5 -429.5t286.5 -164.5t287 164.5t109 429.5q0 266 -109 430t-287 164t-286.5 -164t-108.5 -430z" />
<glyph unicode="1" horiz-adv-x="593" d="M47 1247l31 84h297v-1331h-103v1237h-221z" />
<glyph unicode="2" horiz-adv-x="1024" d="M72 0v76q326 317 392 385q209 216 276 347q46 91 46 175q0 128 -82 203.5t-217 75.5q-177 0 -315 -162h-10l-62 53v8q74 89 173.5 142t213.5 53q182 0 294 -102.5t112 -272.5q0 -40 -9.5 -81.5t-23 -78.5t-44 -85t-56 -85t-77 -95t-89 -98.5t-109.5 -112t-121.5 -119.5 t-140.5 -136h713v-90h-864z" />
<glyph unicode="3" horiz-adv-x="1048" d="M68 170v8l61 58h8q63 -78 162 -122t201 -44q150 0 243 84t93 211q0 144 -104 229.5t-269 85.5h-78v80h82q133 0 225 75t92 191q0 105 -78 170.5t-202 65.5q-89 0 -168.5 -35.5t-134.5 -98.5h-8l-62 54v8q74 79 173 122.5t208 43.5q164 0 271.5 -89.5t107.5 -236.5 q0 -104 -56 -183.5t-155 -119.5q122 -40 191 -135.5t69 -229.5q0 -163 -120 -275t-320 -112q-120 0 -237.5 52.5t-194.5 142.5z" />
<glyph unicode="4" horiz-adv-x="1091" d="M37 346v76l749 909h50v-895h178v-90h-178v-346h-105v346h-694zM166 436h567v688z" />
<glyph unicode="5" horiz-adv-x="1091" d="M94 168v8l64 57h8q63 -77 157.5 -120t198.5 -43q164 0 272.5 99.5t108.5 258.5q0 152 -101.5 250t-258.5 98q-108 0 -199.5 -45t-136.5 -110h-10l-74 36l104 674h674v-96h-588l-71 -457q143 94 311 94q199 0 327 -125.5t128 -320.5q0 -200 -135.5 -325.5t-342.5 -125.5 q-126 0 -241 48.5t-195 144.5z" />
<glyph unicode="6" horiz-adv-x="1101" d="M96 422q-1 201 135.5 444t384.5 504h9l65 -53v-8q-283 -289 -414 -549q128 108 293 108q206 0 339.5 -127t133.5 -319t-133.5 -319.5t-339.5 -127.5t-339.5 127.5t-133.5 319.5zM201 422q0 -152 100 -252t268 -100q167 0 267 100t100 252q0 151 -100 250.5t-267 99.5 q-164 0 -266 -100t-102 -250z" />
<glyph unicode="7" horiz-adv-x="907" d="M33 1233v98h850v-55l-566 -1276h-106l-4 6l545 1227h-719z" />
<glyph unicode="8" horiz-adv-x="1146" d="M98 385q0 129 73.5 226.5t195.5 144.5q-79 41 -124.5 111t-45.5 161q0 145 107 236.5t269 91.5t269.5 -92t107.5 -236q0 -92 -45 -162.5t-123 -111.5q122 -47 194.5 -144.5t72.5 -224.5q0 -177 -137 -293.5t-339 -116.5t-338.5 116.5t-136.5 293.5zM203 387 q0 -139 105.5 -228t264.5 -89q160 0 265.5 88.5t105.5 228.5q0 137 -106 227.5t-265 90.5q-158 0 -264 -90t-106 -228zM305 1028q0 -104 76 -169.5t192 -65.5t192.5 66t76.5 169t-76 168.5t-193 65.5q-116 0 -192 -65.5t-76 -168.5z" />
<glyph unicode="9" horiz-adv-x="1101" d="M61 909q0 191 133 318t338 127q210 0 342 -124t132 -323q1 -193 -137 -441.5t-384 -504.5h-8l-63 51v8q286 293 424 568q-135 -125 -308 -125q-204 0 -336.5 127t-132.5 319zM166 909q0 -152 100 -252t266 -100t267.5 100t101.5 252q0 150 -100.5 250.5t-268.5 100.5 q-166 0 -266 -100.5t-100 -250.5z" />
<glyph unicode=":" horiz-adv-x="473" d="M141 84q0 40 28.5 68t68.5 28t68 -28t28 -68t-28 -68t-68 -28t-68.5 28t-28.5 68zM141 956q0 40 28.5 68.5t68.5 28.5t68 -28.5t28 -68.5t-28 -68t-68 -28t-68.5 28t-28.5 68z" />
<glyph unicode=";" horiz-adv-x="520" d="M137 -244q45 62 69.5 128t26.5 98q-28 9 -45.5 34t-17.5 56q0 40 28 68t68 28q41 0 68.5 -28.5t27.5 -71.5q4 -142 -165 -359h-9l-51 41v6zM172 965q0 40 29 69t69 29t68.5 -29t28.5 -69t-28.5 -68.5t-68.5 -28.5t-69 28.5t-29 68.5z" />
<glyph unicode="&#x3c;" horiz-adv-x="991" d="M66 627v65l784 463l8 -6v-86l-4 -8l-668 -396l668 -395l4 -8v-86l-8 -6z" />
<glyph unicode="=" horiz-adv-x="1234" d="M147 344v86h943v-86h-943zM147 799v86h943v-86h-943z" />
<glyph unicode="&#x3e;" horiz-adv-x="991" d="M133 170v86l4 8l668 395l-668 396l-4 8v86l8 6l785 -463v-65l-785 -463z" />
<glyph unicode="?" horiz-adv-x="999" d="M59 1028q35 142 150.5 235t282.5 93q179 0 300 -104t121 -261q0 -46 -12.5 -89.5t-28 -74.5t-46.5 -69t-49.5 -56.5t-57.5 -55.5t-51 -48q-65 -62 -91 -112.5t-26 -123.5v-86h-102v84q0 95 35.5 162.5t109.5 136.5q12 12 52.5 49.5t60 59t47 58.5t39.5 76t12 83 q0 123 -93 200t-225 77q-127 0 -214 -75.5t-117 -185.5l-9 -4l-86 23zM403 57q0 40 28.5 68.5t68.5 28.5t68 -28.5t28 -68.5t-28 -68t-68 -28t-68.5 28t-28.5 68z" />
<glyph unicode="@" horiz-adv-x="1746" d="M98 512q0 159 59.5 299.5t162.5 242t249.5 160t313.5 58.5q162 0 302 -54.5t239 -149.5t155.5 -227.5t56.5 -283.5q0 -199 -90 -306.5t-223 -107.5q-87 0 -140 47t-65 127q-45 -77 -125 -121t-182 -44q-164 0 -266.5 108.5t-102.5 269.5q0 163 102.5 271t268.5 108 q196 0 293 -155v151h80v-504q0 -88 36 -133t99 -45q93 0 156 90.5t63 247.5q0 180 -86.5 323t-237 221.5t-337.5 78.5q-197 0 -354 -89t-243.5 -243t-86.5 -344q0 -191 87.5 -344.5t241 -238.5t342.5 -85q202 0 365 111h8l45 -62v-8q-75 -58 -186 -93.5t-234 -35.5 q-124 0 -240 36.5t-210.5 105t-166 161t-110.5 210.5t-39 247zM530 530q0 -129 79.5 -217t207.5 -88q124 0 206.5 84.5t82.5 220.5t-82 221t-207 85q-128 0 -207.5 -88.5t-79.5 -217.5z" />
<glyph unicode="A" horiz-adv-x="1435" d="M6 12l27 74l8 2q24 -16 51 -16q33 0 53 20q17 17 45 82l498 1157h66l489 -1157q28 -65 47 -82q20 -20 51 -20q32 0 52 16l8 -2l26 -74l-4 -8q-42 -29 -90 -29q-64 0 -104 37q-40 33 -80 125l-76 182h-713l-77 -182q-40 -92 -80 -125q-43 -37 -101 -37q-50 0 -92 29z M399 414h633l-313 747z" />
<glyph unicode="B" horiz-adv-x="1261" d="M201 0v1331h465q212 0 318 -93t106 -251q0 -101 -53.5 -176.5t-141.5 -114.5q111 -38 183.5 -123.5t72.5 -207.5q0 -165 -114.5 -265t-334.5 -100h-501zM305 94h422q143 0 230 75.5t87 199.5q0 126 -90.5 201t-238.5 75h-410v-551zM305 733h383q138 0 216.5 67t78.5 185 q0 120 -81.5 186t-223.5 66h-373v-504z" />
<glyph unicode="C" horiz-adv-x="1411" d="M100 666q0 -193 91 -351.5t251 -249t355 -90.5q163 0 305 69t237 189v9l-71 55h-8q-78 -105 -200.5 -164t-262.5 -59q-165 0 -300 77t-212.5 213t-77.5 302q0 167 77.5 303t212.5 212t300 76q140 0 262.5 -59t200.5 -164h8l71 56v8q-95 120 -237 189t-305 69 q-196 0 -355.5 -90.5t-250.5 -248.5t-91 -351z" />
<glyph unicode="D" horiz-adv-x="1468" d="M201 0v1331h479q313 0 499.5 -182t186.5 -481q0 -302 -186 -485t-500 -183h-479zM305 94h375q265 0 421 156t156 416t-155.5 415.5t-421.5 155.5h-375v-1143z" />
<glyph unicode="E" horiz-adv-x="1128" d="M201 0v1331h839v-94h-735v-518h580v-92h-580v-533h735v-94h-839z" />
<glyph unicode="F" horiz-adv-x="1026" d="M201 0v1331h782v-94h-678v-518h537v-92h-537v-627h-104z" />
<glyph unicode="G" horiz-adv-x="1536" d="M100 666q0 144 53.5 272t146 220t221.5 145t274 53q167 0 309 -67t235 -187v-8l-71 -60h-8q-79 105 -201 164t-266 59q-163 0 -297 -76t-211.5 -212t-77.5 -303q0 -166 77 -302t211 -213t296 -77q154 0 284.5 70.5t207.5 192.5t79 267h-563v94h661l8 -10q2 -18 2 -49 q0 -182 -88 -334t-244 -241t-347 -89q-144 0 -272 53.5t-220 145t-145.5 220t-53.5 272.5z" />
<glyph unicode="H" horiz-adv-x="1476" d="M201 0v1331h104v-612h866v612h105v-1331h-105v627h-866v-627h-104z" />
<glyph unicode="I" horiz-adv-x="714" d="M78 0v92h227v1149h-227v90h559v-90h-227v-1149h227v-92h-559z" />
<glyph unicode="J" horiz-adv-x="1015" d="M61 176v8l72 60h8q113 -172 301 -172q123 0 204 81.5t81 219.5v864h-453v94h557v-960q0 -185 -111.5 -290.5t-275.5 -105.5q-251 0 -383 201z" />
<glyph unicode="K" horiz-adv-x="1210" d="M74 1319l6 8q33 29 92 29q69 0 107 -44t38 -116v-575l680 710h125l4 -6l-598 -627l445 -520q52 -58 87 -82t68 -24q34 0 60 16l10 -2l25 -74l-4 -8q-39 -29 -97 -29q-59 0 -117.5 40t-125.5 116l-422 492l-140 -146v-477h-106v1165q0 95 -55 95q-30 0 -47 -17l-11 2z" />
<glyph unicode="L" horiz-adv-x="1005" d="M201 0v1331h104v-1237h662v-94h-766z" />
<glyph unicode="M" horiz-adv-x="1777" d="M57 12l27 74l8 2q24 -16 49 -16q33 0 50.5 31.5t27.5 113.5l121 1114h66l483 -1171l483 1171h66l123 -1114q9 -82 25.5 -113.5t49.5 -31.5q30 0 50 16l10 -2l26 -74l-4 -8q-42 -29 -92 -29q-141 0 -162 203l-100 893l-442 -1071h-66l-442 1075l-101 -897 q-21 -203 -159 -203q-51 0 -93 29z" />
<glyph unicode="N" horiz-adv-x="1490" d="M201 0v1331h65l922 -1128v1128h102v-1331h-65l-922 1128v-1128h-102z" />
<glyph unicode="O" horiz-adv-x="1601" d="M98 666q0 193 91.5 351t253 248.5t358.5 90.5q148 0 278.5 -53t223.5 -145t146.5 -220t53.5 -272t-53.5 -272.5t-146.5 -220t-223.5 -145t-278.5 -53.5t-278.5 53.5t-223.5 145t-147 220t-54 272.5zM205 666q0 -167 77.5 -302.5t214 -212.5t304.5 -77t304.5 77t214 212.5 t77.5 302.5t-77.5 302.5t-214 212t-304.5 76.5t-304.5 -76.5t-214 -212t-77.5 -302.5z" />
<glyph unicode="P" horiz-adv-x="1173" d="M201 0v1331h465q210 0 326 -105t116 -288q0 -184 -115.5 -288.5t-326.5 -104.5h-361v-545h-104zM305 635h383q144 0 228.5 84t84.5 217t-84.5 217t-228.5 84h-383v-602z" />
<glyph unicode="Q" horiz-adv-x="1601" d="M98 666q0 193 91.5 351t253 248.5t358.5 90.5q148 0 278.5 -53t223.5 -145t146.5 -220t53.5 -272q0 -208 -106 -374t-283 -249q60 -71 102 -114.5t92.5 -83t101 -57t108.5 -17.5q125 0 215 75l10 -4l43 -71l-2 -9q-114 -90 -264 -90q-61 0 -118.5 18t-103.5 44.5 t-98.5 73.5t-91.5 90t-94 108q-105 -31 -213 -31q-148 0 -278.5 53.5t-223.5 145t-147 220t-54 272.5zM205 666q0 -149 59 -267q113 68 262 68q79 0 142 -19t126 -66.5t116.5 -103.5t136.5 -155q160 67 255 212t95 331q0 167 -77.5 302.5t-214 212t-304.5 76.5t-304.5 -76.5 t-214 -212t-77.5 -302.5zM315 311q81 -111 208 -174t278 -63q69 0 141 16q-58 67 -90.5 102.5t-75.5 75.5t-76.5 58t-76 30.5t-91.5 12.5q-126 0 -217 -58z" />
<glyph unicode="R" horiz-adv-x="1253" d="M201 0v1331h465q212 0 327 -98t115 -277q0 -160 -94 -256.5t-269 -115.5q63 -37 152 -254q22 -53 34.5 -81.5t34 -68t40 -59t45.5 -34.5t57 -15q39 0 61 16l11 -4l24 -72l-4 -8q-48 -29 -106 -29q-49 0 -90.5 20.5t-67 42t-56.5 75.5t-42 79t-40 96q-4 8 -6 13t-5 12 t-5 13q-108 254 -188 254h-289v-580h-104zM305 672h383q146 0 229.5 77.5t83.5 206.5q0 130 -83.5 205.5t-229.5 75.5h-383v-565z" />
<glyph unicode="S" horiz-adv-x="1081" d="M76 201q76 -104 203.5 -165t273.5 -61q190 0 311 100.5t121 260.5q0 37 -8 71t-18.5 61t-33 54t-39.5 45.5t-51 40.5t-54.5 34.5t-63 32t-62.5 28t-67.5 28.5t-65.5 27q-67 28 -110 51t-84 55t-60.5 71t-19.5 87q0 103 84 169t215 66q194 0 325 -159h9l65 61v8 q-156 189 -399 189q-180 0 -294 -96.5t-114 -245.5q0 -57 20 -106.5t49 -83.5t76.5 -66t86.5 -51t96 -43q22 -9 62.5 -26t62.5 -26t57 -25t54.5 -26.5t47.5 -27.5t43.5 -31.5t33.5 -34.5t27 -39.5t15.5 -44t6.5 -51.5q0 -112 -91.5 -185t-238.5 -73q-246 0 -400 200h-8 l-63 -65v-8z" />
<glyph unicode="T" horiz-adv-x="1050" d="M27 1237h444v-1237h104v1237h447v94h-995v-94z" />
<glyph unicode="U" horiz-adv-x="1439" d="M59 1319l4 8q33 29 95 29q69 0 106 -43.5t37 -116.5v-672q0 -210 114.5 -331t313.5 -121q198 0 313 122t115 330v807h103v-811q0 -251 -142.5 -398t-388.5 -147t-389 147t-143 398v645q0 95 -58 95q-27 0 -47 -17l-8 2z" />
<glyph unicode="V" horiz-adv-x="1427" d="M6 1319l4 8q37 29 94 29q65 0 107.5 -39.5t77.5 -120.5l426 -1024l426 1024q34 80 76.5 120t105.5 40q57 0 94 -29l4 -8l-26 -74l-9 -2q-23 17 -53 17q-28 0 -49.5 -22t-44.5 -77l-491 -1161h-68l-492 1161q-23 55 -44.5 77t-49.5 22q-30 0 -53 -17l-8 2z" />
<glyph unicode="W" horiz-adv-x="2027" d="M6 1319l27 -74l8 -2q30 17 55 17q32 0 48.5 -21.5t35.5 -77.5l404 -1161h65l365 1167l364 -1167h66l403 1161q20 56 37.5 77.5t48.5 21.5q24 0 54 -17l8 2l26 74l-4 8q-42 29 -98 29q-116 0 -170 -160l-338 -1014l-348 1149h-96l-349 -1151l-337 1016q-52 160 -172 160 q-57 0 -99 -29z" />
<glyph unicode="X" horiz-adv-x="1368" d="M23 12l26 74l8 2q26 -16 60 -16q30 0 58.5 19.5t64.5 70.5l381 504l-353 503q-35 51 -63.5 71t-59.5 20q-34 0 -57 -17l-8 2l-29 74l6 8q40 29 99 29q63 0 112 -35.5t109 -120.5l313 -446l336 446q62 86 110 121t109 35q53 0 96 -29l5 -8l-27 -74l-8 -2q-23 17 -58 17 q-31 0 -59 -19.5t-66 -71.5l-380 -503l352 -504q37 -52 64.5 -71t58.5 -19q33 0 59 16l8 -2l27 -74l-4 -8q-43 -29 -96 -29q-66 0 -116 35.5t-108 120.5l-313 447l-338 -447q-60 -86 -108.5 -121t-112.5 -35q-51 0 -94 29z" />
<glyph unicode="Y" horiz-adv-x="1370" d="M12 1319l4 8q39 29 90 29q63 0 107.5 -36.5t101.5 -119.5l373 -559l373 559q54 81 97.5 118.5t103.5 37.5q53 0 90 -29l4 -8l-27 -74l-8 -2q-21 17 -53 17q-29 0 -54 -19.5t-61 -71.5l-414 -616v-553h-106v551l-416 618q-36 52 -61 71.5t-54 19.5q-32 0 -53 -17l-8 2z " />
<glyph unicode="Z" horiz-adv-x="1171" d="M53 0h893q73 0 116.5 34.5t43.5 96.5q0 59 -29 92l-8 6l-74 -26l-4 -8q21 -17 21 -45q0 -58 -97 -58h-718l866 1174v65h-967v-90h824l-867 -1175v-66z" />
<glyph unicode="[" horiz-adv-x="530" d="M166 -299v1749h299v-86h-199v-1577h199v-86h-299z" />
<glyph unicode="\" horiz-adv-x="1019" d="M49 1432l8 10h90l822 -1540l-11 -11h-88z" />
<glyph unicode="]" horiz-adv-x="530" d="M66 -213h198v1577h-198v86h299v-1749h-299v86z" />
<glyph unicode="^" horiz-adv-x="1198" d="M74 565l497 766h66l487 -766l-6 -8h-92l-8 6l-414 651l-424 -651l-10 -6h-90z" />
<glyph unicode="_" horiz-adv-x="960" d="M41 -127h879v-82h-879v82z" />
<glyph unicode="`" horiz-adv-x="565" d="M82 1389v8l61 76h9l331 -269v-8l-39 -49h-6z" />
<glyph unicode="a" d="M90 512q0 149 65 271.5t183.5 194t267.5 71.5q133 0 239.5 -56.5t176.5 -154.5v186h100v-864q0 -94 58 -94q29 0 45 16l8 -2l22 -68l-4 -10q-36 -27 -88 -27q-65 0 -101 44t-36 116v60q-68 -102 -177 -161t-243 -59q-111 0 -208 42t-164 114t-105.5 171t-38.5 210z M195 512q0 -189 116.5 -316.5t302.5 -127.5q178 0 298 123.5t120 320.5q0 199 -119 321.5t-299 122.5q-185 0 -302 -128.5t-117 -315.5z" />
<glyph unicode="b" horiz-adv-x="1284" d="M29 1368l4 10q36 27 88 27q68 0 104.5 -41t36.5 -113v-415q68 99 174.5 156t237.5 57q152 0 271.5 -72t184 -194t64.5 -271t-64.5 -271t-184 -194t-271.5 -72q-131 0 -237.5 57t-174.5 156v-188h-100v1221q0 96 -56 96q-24 0 -47 -19l-8 2zM252 512q0 -202 119 -323 t303 -121q182 0 299 127.5t117 316.5q0 188 -116.5 316t-299.5 128q-184 0 -303 -121t-119 -323z" />
<glyph unicode="c" horiz-adv-x="1126" d="M90 512q0 -228 153.5 -382.5t385.5 -154.5q132 0 244 52.5t182 144.5v10l-64 49h-8q-126 -163 -354 -163q-191 0 -312.5 126.5t-121.5 317.5q0 190 122.5 317t311.5 127q219 0 354 -163h8l64 51v8q-70 92 -182 144.5t-244 52.5q-232 0 -385.5 -154.5t-153.5 -382.5z" />
<glyph unicode="d" d="M90 512q0 150 65 272t184.5 193.5t270.5 71.5q130 0 236 -57t176 -156v542l92 19l8 -6v-1231q0 -94 58 -94q26 0 45 16l8 -2l22 -68l-4 -10q-36 -27 -88 -27q-65 0 -101 44t-36 116v58q-68 -100 -176.5 -159t-239.5 -59q-151 0 -270.5 72t-184.5 194t-65 271zM195 512 q0 -189 116.5 -316.5t298.5 -127.5q184 0 303 121t119 323q0 203 -119 323.5t-303 120.5q-120 0 -215.5 -59.5t-147.5 -161t-52 -223.5z" />
<glyph unicode="e" horiz-adv-x="1196" d="M90 510q0 233 144.5 386t373.5 153q114 0 210 -41t160 -112t100 -167t36 -205q0 -33 -2 -45h-917q12 -188 135 -299.5t299 -111.5q114 0 219 48t166 132h8l65 -55v-9q-72 -98 -196.5 -153.5t-259.5 -55.5q-147 0 -269 63.5t-197 187t-75 284.5zM197 567h813 q-14 179 -120.5 284t-277.5 105q-174 0 -288.5 -107.5t-126.5 -281.5z" />
<glyph unicode="f" horiz-adv-x="659" d="M39 938v86h178v39q0 176 92.5 265t229.5 89q106 0 182 -49l2 -8l-35 -68l-10 -4q-65 39 -139 39q-100 0 -161 -65.5t-61 -198.5v-39h326v-86h-326v-1112q0 -72 -36.5 -115t-104.5 -43q-57 0 -88 27l-4 8l22 68l9 4q19 -19 47 -19q55 0 55 97v1085h-178z" />
<glyph unicode="g" horiz-adv-x="1253" d="M92 575q0 202 139 338t351 136q127 0 228.5 -52.5t164.5 -144.5v43q0 72 35.5 113t101.5 41q52 0 88 -27l4 -10l-22 -68l-8 -2q-23 19 -46 19q-57 0 -57 -97v-706q0 -114 -37.5 -204t-103 -146.5t-152.5 -85.5t-190 -29q-148 0 -265 57t-188 162v8l55 60h9 q63 -91 162 -144t227 -53q174 0 278.5 98t104.5 277v137q-63 -90 -163.5 -141.5t-225.5 -51.5q-212 0 -351 136t-139 337zM197 575q0 -166 108 -273t281 -107q171 0 280 107t109 271q0 167 -109.5 275t-281.5 108q-171 0 -279 -108t-108 -273z" />
<glyph unicode="h" horiz-adv-x="1206" d="M29 1368l4 10q36 27 88 27q68 0 104.5 -41t36.5 -113v-381q56 84 150.5 131.5t212.5 47.5q187 0 300 -114.5t113 -301.5v-473q0 -94 58 -94q24 0 41 14l8 -2l24 -70l-6 -8q-29 -25 -84 -25q-68 0 -104.5 44.5t-36.5 117.5v488q0 151 -89.5 241t-238.5 90 q-155 0 -251.5 -95t-96.5 -245v-616h-100v1221q0 96 -58 96q-22 0 -45 -19l-8 2z" />
<glyph unicode="i" horiz-adv-x="438" d="M111 1241q0 40 28 68t68 28t68 -28t28 -68t-28 -68t-68 -28t-68 28t-28 68zM158 137v887h100v-864q0 -94 55 -94q22 0 43 14l9 -2l22 -70l-4 -8q-33 -25 -86 -25q-67 0 -103 44.5t-36 117.5z" />
<glyph unicode="j" horiz-adv-x="452" d="M49 -227q71 42 106 98t35 152v915h-141v86h242v-991q0 -69 -13.5 -123t-41 -93.5t-60 -67.5t-80.5 -56h-8l-39 74v6zM104 1241q0 40 28.5 68t68.5 28t68 -28t28 -68t-28 -68t-68 -28t-68.5 28t-28.5 68z" />
<glyph unicode="k" horiz-adv-x="1118" d="M29 1368l4 10q36 27 88 27q68 0 104.5 -41t36.5 -113v-381q53 85 147.5 132t217.5 47q167 0 267.5 -89.5t100.5 -236.5q0 -131 -91.5 -220t-237.5 -104l215 -262q32 -37 56 -54t52 -17q25 0 49 14l9 -2l22 -70l-4 -8q-35 -25 -84 -25q-56 0 -98.5 30t-87.5 85l-254 307 h-279v-397h-100v1221q0 96 -56 96q-24 0 -47 -19l-8 2zM262 483h348q125 0 203 67t78 173t-74.5 170.5t-198.5 64.5q-169 0 -262.5 -99t-93.5 -261v-115z" />
<glyph unicode="l" horiz-adv-x="452" d="M31 1368l4 10q40 27 90 27q67 0 103 -41t36 -113v-1091q0 -94 55 -94q29 0 48 16l8 -2l22 -68l-4 -10q-36 -27 -88 -27q-67 0 -104 44t-37 116v1086q0 96 -55 96q-25 0 -48 -19l-8 2z" />
<glyph unicode="m" horiz-adv-x="1970" d="M51 1012l4 10q36 27 88 27q65 0 101.5 -42t36.5 -112v-35q55 88 149.5 138.5t214.5 50.5q133 0 229 -62.5t138 -171.5q51 108 153.5 171t237.5 63q184 0 290.5 -114t106.5 -302v-473q0 -94 55 -94q25 0 43 14l9 -2l22 -70l-4 -8q-29 -25 -84 -25q-69 0 -106 44.5 t-37 117.5v488q0 152 -82 241.5t-227 89.5q-152 0 -248.5 -95.5t-96.5 -244.5v-616h-102v625q0 152 -83 241.5t-228 89.5q-152 0 -248 -95t-96 -245v-616h-103v864q0 97 -57 97q-22 0 -45 -19l-8 2z" />
<glyph unicode="n" horiz-adv-x="1232" d="M51 1012l4 10q36 27 88 27q65 0 101.5 -42t36.5 -112v-31q57 87 151.5 136t214.5 49q188 0 302 -114.5t114 -301.5v-473q0 -94 55 -94q26 0 43 14l8 -2l23 -70l-4 -8q-29 -25 -84 -25q-69 0 -106 44.5t-37 117.5v488q0 151 -89 241t-237 90q-155 0 -251.5 -95t-96.5 -245 v-616h-103v864q0 97 -57 97q-22 0 -45 -19l-8 2z" />
<glyph unicode="o" horiz-adv-x="1265" d="M90 512q0 228 155.5 382.5t387.5 154.5t387.5 -154.5t155.5 -382.5t-155.5 -382.5t-387.5 -154.5t-387.5 154.5t-155.5 382.5zM195 512q0 -191 124 -317.5t314 -126.5t314 126.5t124 317.5t-124 317.5t-314 126.5t-314 -126.5t-124 -317.5z" />
<glyph unicode="p" d="M51 1012l4 10q36 27 88 27q65 0 101.5 -41.5t36.5 -112.5v-66q68 102 175.5 161t239.5 59q152 0 272 -72t184.5 -194t64.5 -271t-64.5 -271t-184.5 -194t-272 -72q-131 0 -237 57t-174 156v-495h-101v1171q0 97 -55 97q-24 0 -47 -19l-8 2zM274 512q0 -202 119 -323 t303 -121q182 0 299 127.5t117 316.5q0 187 -117 315.5t-299 128.5q-184 0 -303 -121t-119 -323z" />
<glyph unicode="q" horiz-adv-x="1304" d="M90 512q0 149 65 271t184.5 194t270.5 72q131 0 239.5 -59t176.5 -159v62q0 73 36 114.5t101 41.5q52 0 88 -27l4 -10l-22 -68l-8 -2q-23 19 -45 19q-58 0 -58 -97v-1171h-100v495q-70 -99 -176 -156t-236 -57q-151 0 -270.5 72t-184.5 194t-65 271zM195 512 q0 -189 116.5 -316.5t298.5 -127.5q184 0 303 121t119 323t-119 323t-303 121q-120 0 -215.5 -59.5t-147.5 -161t-52 -223.5z" />
<glyph unicode="r" horiz-adv-x="710" d="M51 1012l4 10q36 27 88 27q65 0 101.5 -41.5t36.5 -112.5v-25q46 85 121.5 132t170.5 47q72 0 129 -29l5 -8l-35 -76l-8 -2q-38 22 -105 22q-117 0 -195.5 -94t-78.5 -250v-612h-101v864q0 97 -55 97q-24 0 -47 -19l-8 2z" />
<glyph unicode="s" horiz-adv-x="874" d="M68 162q61 -88 157.5 -137.5t216.5 -49.5q152 0 251.5 76.5t99.5 206.5q0 56 -20.5 102.5t-52 78t-78.5 59.5t-90 46.5t-97 39.5q-25 9 -37 14q-99 41 -148 82.5t-49 110.5q0 73 57.5 119t151.5 46q80 0 145 -33t107 -92h8l64 52v8q-46 72 -132.5 115t-189.5 43 q-138 0 -226.5 -75.5t-88.5 -193.5q0 -55 20.5 -98.5t61 -75t78.5 -51.5t96 -43q17 -7 58.5 -24.5t59.5 -25t52 -24t49.5 -27.5t38.5 -29.5t33 -36t18 -40.5t8 -49q0 -84 -70.5 -136t-183.5 -52q-100 0 -176 42t-119 113h-10l-63 -51v-10z" />
<glyph unicode="t" horiz-adv-x="688" d="M37 938v86h178v313l92 19l8 -6v-326h332v-86h-332v-612q0 -125 52.5 -191.5t148.5 -66.5q56 0 98 28l11 -4l32 -69l-4 -9q-56 -39 -143 -39q-134 0 -214.5 93.5t-80.5 257.5v612h-178z" />
<glyph unicode="u" horiz-adv-x="1210" d="M37 1012l4 10q36 27 88 27q68 0 104.5 -41t36.5 -113v-508q0 -149 87 -234t233 -85q143 0 239.5 96t96.5 244v616h100v-864q0 -94 55 -94q28 0 47 16l9 -2l22 -68l-4 -10q-36 -27 -88 -27q-65 0 -101 44t-36 116v25q-57 -86 -149.5 -135.5t-207.5 -49.5 q-184 0 -293.5 109.5t-109.5 294.5v485q0 97 -55 97q-24 0 -47 -19l-9 2z" />
<glyph unicode="v" horiz-adv-x="1124" d="M45 1012l4 10q36 27 88 27q68 0 105 -41t37 -113v-516q0 -149 75 -230t217 -81q153 0 251 121t98 321q0 161 -44.5 306t-115.5 222v9l74 55h8q85 -89 134.5 -249.5t49.5 -342.5q-1 -240 -129.5 -387.5t-325.5 -147.5q-179 0 -286 108.5t-107 287.5v493q0 97 -55 97 q-24 0 -47 -19l-8 2z" />
<glyph unicode="w" horiz-adv-x="1826" d="M43 1012l6 10q36 27 86 27q68 0 104.5 -41t36.5 -113v-516q0 -150 80.5 -230.5t216.5 -80.5q140 0 224 88t84 233v635h100v-637q0 -148 77.5 -233.5t209.5 -85.5q163 0 256.5 118.5t99.5 323.5v27q0 145 -40 278q-44 145 -116 223v9l74 55h8q86 -90 136 -252 q44 -144 43 -302v-38q-8 -246 -131.5 -390.5t-327.5 -144.5q-116 0 -204 53t-134 146q-50 -95 -141 -147t-211 -52q-180 0 -292 107t-112 289v493q0 97 -55 97q-26 0 -45 -19l-8 2z" />
<glyph unicode="x" horiz-adv-x="1142" d="M39 12l22 68l11 2q19 -16 51 -16q61 0 125 92l256 354l-254 354q-39 55 -66.5 75t-54.5 20q-29 0 -51 -19l-8 2l-23 68l4 10q36 27 90 27q62 0 104 -33t97 -111l233 -330l234 330q55 79 96.5 111.5t104.5 32.5q54 0 90 -27l4 -10l-23 -68l-8 -2q-22 19 -51 19 q-58 0 -127 -95l-254 -354l254 -354q38 -55 64.5 -73.5t54.5 -18.5q32 0 53 16l8 -2l23 -68l-4 -10q-36 -27 -90 -27q-63 0 -104.5 32.5t-96.5 111.5l-236 332l-233 -332q-52 -77 -95 -110.5t-106 -33.5q-49 0 -90 27z" />
<glyph unicode="y" horiz-adv-x="1173" d="M25 1012l4 10q41 27 88 27q68 0 104.5 -41t36.5 -113v-416q0 -143 85 -222t228 -79t242.5 96.5t99.5 243.5v506h101v-866q0 -148 -62.5 -255t-167 -158.5t-239.5 -51.5q-116 0 -216.5 46.5t-174.5 133.5v8l55 60h8q62 -74 146.5 -116t181.5 -42q168 0 268 99.5t100 275.5 v100q-61 -80 -153.5 -126t-200.5 -46q-186 0 -293.5 104t-107.5 293v381q0 97 -56 97q-24 0 -47 -19l-8 2z" />
<glyph unicode="z" horiz-adv-x="927" d="M61 0v74l650 866h-613v84h738v-72l-650 -868h529q86 0 86 55q0 26 -21 47l4 9l66 22l10 -2q29 -37 29 -90q0 -125 -160 -125h-668z" />
<glyph unicode="{" horiz-adv-x="581" d="M74 537v77q24 0 42 5t30 11.5t20 22t12.5 28t6.5 39t2.5 44.5t0.5 55v287q0 194 65 269t232 75h41v-86h-39q-118 0 -158 -52t-40 -206v-242q0 -140 -21.5 -202t-66.5 -62v-49q45 0 66.5 -62.5t21.5 -201.5v-242q0 -154 40 -206t158 -52h39v-86h-41q-167 0 -232 75 t-65 269v287q0 37 -0.5 55t-2.5 44.5t-6.5 39t-12.5 28t-20 22t-30 11.5t-42 5z" />
<glyph unicode="|" horiz-adv-x="419" d="M166 -299v1749h88v-1749h-88z" />
<glyph unicode="}" horiz-adv-x="581" d="M55 -213h39q119 0 159 52t40 206v242q0 139 21.5 201.5t66.5 62.5v49q-45 0 -66.5 62t-21.5 202v242q0 154 -40 206t-159 52h-39v86h41q167 0 232 -75t65 -269v-287q0 -42 0.5 -63.5t4 -49.5t10.5 -41.5t20 -27t32.5 -18.5t47.5 -5v-77q-28 0 -47.5 -5t-32.5 -18.5 t-20 -27t-10.5 -41.5t-4 -49.5t-0.5 -63.5v-287q0 -194 -65 -269t-232 -75h-41v86z" />
<glyph unicode="~" horiz-adv-x="1185" d="M150 651v6q23 27 43.5 44t63 32t97.5 15q85 0 248 -36t236 -36q96 0 143 72h8l51 -68v-8q-19 -21 -31 -32t-36.5 -26.5t-57.5 -22.5t-77 -7q-83 0 -242.5 35.5t-241.5 35.5q-44 0 -85.5 -20t-61.5 -51h-6z" />
<glyph unicode="&#xa1;" horiz-adv-x="428" d="M117 967q0 40 28 68t68 28t68 -28t28 -68t-28 -68.5t-68 -28.5t-68 28.5t-28 68.5zM156 -301l12 1051l10 6h72l8 -6l14 -1051l-6 -6h-104z" />
<glyph unicode="&#xa2;" horiz-adv-x="1157" d="M96 668q0 216 137.5 366.5t352.5 167.5v150h92v-150q119 -7 219 -58.5t164 -135.5v-9l-64 -51h-8q-136 164 -354 164q-189 0 -311.5 -127t-122.5 -317q0 -191 121.5 -318t312.5 -127q228 0 354 164h8l64 -49v-10q-64 -84 -164 -136t-219 -59v-158h-92v158 q-215 17 -352.5 168t-137.5 367z" />
<glyph unicode="&#xa3;" horiz-adv-x="1091" d="M100 0v92h131v541h-118v92h118v244q0 179 113.5 283t286.5 104q213 0 362 -168v-8l-61 -58h-8q-125 142 -295 142q-128 0 -211.5 -78t-83.5 -215v-246h405v-92h-405v-541h659v-92h-893z" />
<glyph unicode="&#xa4;" horiz-adv-x="1355" d="M152 221l129 127q-115 139 -115.5 322.5t113.5 324.5l-125 125l67 68l125 -125q142 122 332.5 121.5t331.5 -123.5l127 127l67 -68l-127 -127q113 -141 112.5 -323.5t-114.5 -321.5l127 -127l-67 -67l-127 127q-145 -121 -334 -120.5t-326 120.5l-129 -127zM268 672 q0 -175 119.5 -297.5t290.5 -122.5t289 122.5t118 297.5t-118 297.5t-289 122.5t-290.5 -122.5t-119.5 -297.5z" />
<glyph unicode="&#xa5;" horiz-adv-x="1239" d="M53 1325l4 6h117l449 -678l450 678h109l2 -6l-508 -768h289v-78h-293v-174h293v-78h-293v-227h-105v227h-293v78h293v174h-293v78h289z" />
<glyph unicode="&#xa6;" horiz-adv-x="415" d="M164 -299v793h88v-793h-88zM164 698v752h88v-752h-88z" />
<glyph unicode="&#xa7;" horiz-adv-x="1101" d="M74 -94l63 57h8q71 -90 175 -139t233 -49q151 0 242.5 63.5t91.5 161.5q0 21 -4 40t-14.5 36t-19.5 31t-29.5 29.5t-33 26t-41.5 25t-43 22t-49.5 22.5t-49.5 20.5t-54 21.5q-57 22 -86.5 34t-78.5 34.5t-76 40t-61 44.5t-51 53t-29.5 61.5t-12.5 74.5q0 72 35 131 t100 97q-135 89 -135 219q0 129 111.5 211t283.5 82q121 0 225 -43t178 -123v-8l-69 -56h-9q-137 144 -327 144q-122 0 -204.5 -55.5t-82.5 -145.5q0 -32 10.5 -59.5t35 -51t48.5 -41.5t66.5 -38t74 -33t84.5 -34q15 -6 23 -9q47 -19 74.5 -30t70 -30t67.5 -34.5t57.5 -37.5 t51 -44.5t36.5 -50.5t26 -60.5t8 -69.5q0 -142 -119 -225q119 -84 119 -221q0 -139 -118.5 -224t-313.5 -85q-153 0 -282.5 55t-204.5 152v8zM260 623q0 -45 24 -82.5t61.5 -64t93.5 -53.5t108.5 -47t118 -48t112.5 -54q52 31 80.5 76t28.5 96q0 45 -23 84t-57.5 66 t-88.5 54.5t-103 47t-114.5 46.5t-109.5 49q-62 -25 -96.5 -69t-34.5 -101z" />
<glyph unicode="&#xa8;" horiz-adv-x="735" d="M113 1241q0 40 28 68t66 28q40 0 68 -28t28 -68t-28 -68t-68 -28q-38 0 -66 28t-28 68zM432 1241q0 40 28 68t66 28q40 0 68.5 -28t28.5 -68t-28.5 -68t-68.5 -28q-38 0 -66 28t-28 68z" />
<glyph unicode="&#xa9;" horiz-adv-x="1587" d="M102 666q0 142 52.5 269t143.5 219.5t220.5 147t276.5 54.5q146 0 275 -54.5t220 -147t144 -219.5t53 -269q0 -190 -89.5 -348t-248.5 -250.5t-354 -92.5q-147 0 -276.5 54.5t-220.5 147t-143.5 220t-52.5 269.5zM190 666q0 -168 78 -307.5t217 -220.5t310 -81 q170 0 308.5 81t216 220.5t77.5 307.5q0 126 -46 238t-125 193.5t-191.5 129t-239.5 47.5q-171 0 -310 -80.5t-217 -220t-78 -307.5zM397 668q0 172 117 288.5t293 116.5q100 0 185 -39.5t138 -109.5v-6l-57 -56h-6q-92 121 -258 121q-144 0 -227.5 -89t-83.5 -226 q0 -138 83.5 -227t229.5 -89q167 0 256 121h6l57 -57v-6q-53 -69 -138 -108.5t-185 -39.5q-176 0 -293 116.5t-117 289.5z" />
<glyph unicode="&#xaa;" horiz-adv-x="849" d="M106 899q0 100 77 152.5t190 52.5q112 0 205 -41v45q0 79 -56.5 121.5t-132.5 42.5q-64 0 -121.5 -26t-89.5 -64h-8l-43 51v6q40 50 114.5 82.5t155.5 32.5q105 0 183.5 -59.5t78.5 -170.5v-282q0 -36 8.5 -54t30.5 -18q13 0 33 12l8 -4l19 -57l-2 -6q-31 -23 -70 -23 q-49 0 -75 28.5t-29 74.5q-37 -46 -96.5 -73.5t-127.5 -27.5q-110 0 -181 57t-71 148zM199 899q0 -58 43.5 -91.5t117.5 -33.5q90 0 151.5 51t61.5 127v37q-92 37 -200 37q-77 0 -125.5 -34t-48.5 -93z" />
<glyph unicode="&#xab;" horiz-adv-x="897" d="M94 596v20l299 342h8l56 -57v-6l-248 -289l248 -289v-8l-56 -55h-8zM401 596v20l299 342h9l55 -57v-6l-248 -289l248 -289v-8l-55 -55h-9z" />
<glyph unicode="&#xad;" horiz-adv-x="964" d="M139 571v86h686v-86h-686z" />
<glyph unicode="&#xae;" horiz-adv-x="1587" d="M102 666q0 142 52.5 269t143.5 219.5t220.5 147t276.5 54.5q146 0 275 -54.5t220 -147t144 -219.5t53 -269q0 -190 -89.5 -348t-248.5 -250.5t-354 -92.5q-147 0 -276.5 54.5t-220.5 147t-143.5 220t-52.5 269.5zM190 666q0 -168 78 -307.5t217 -220.5t310 -81 q170 0 308.5 81t216 220.5t77.5 307.5q0 126 -46 238t-125 193.5t-191.5 129t-239.5 47.5q-171 0 -310 -80.5t-217 -220t-78 -307.5zM520 264v834h293q134 0 206.5 -61.5t72.5 -176.5q0 -97 -55.5 -159.5t-162.5 -69.5l220 -367h-103l-219 363h-168v-363h-84zM604 702h225 q86 0 131.5 45t45.5 115q0 71 -45.5 115.5t-131.5 44.5h-225v-320z" />
<glyph unicode="&#xaf;" horiz-adv-x="1069" d="M258 1188v86h553v-86h-553z" />
<glyph unicode="&#xb0;" horiz-adv-x="720" d="M96 1092q0 110 77.5 187t186.5 77q110 0 187.5 -77t77.5 -187t-76.5 -187.5t-188.5 -77.5q-109 0 -186.5 78t-77.5 187zM180 1092q0 -75 53 -129t127 -54q76 0 129.5 54t53.5 129t-54 128.5t-129 53.5q-74 0 -127 -53.5t-53 -128.5z" />
<glyph unicode="&#xb1;" horiz-adv-x="1193" d="M125 0v86h942v-86h-942zM127 573v82h428v406h90v-406h426v-82h-426v-413h-90v413h-428z" />
<glyph unicode="&#xb4;" horiz-adv-x="565" d="M82 1196v8l334 269h6l61 -76v-8l-354 -242h-8z" />
<glyph unicode="&#xb6;" horiz-adv-x="1300" d="M63 1022q0 428 537 428h623v-90h-457v-1653h-88v879h-78q-119 -1 -214.5 23t-169 74.5t-113.5 136t-40 202.5zM965 -293h88v1493h-88v-1493z" />
<glyph unicode="&#xb7;" horiz-adv-x="487" d="M133 549q0 44 33.5 77t77.5 33t77 -33t33 -77t-33 -77.5t-77 -33.5t-77.5 33.5t-33.5 77.5z" />
<glyph unicode="&#xb8;" horiz-adv-x="602" d="M63 -324v-8q37 -37 100 -60.5t126 -23.5q101 0 162 49t61 131q0 66 -45 109t-111 43q-45 0 -75 -12l-2 4l36 88v43h-104v-43l-68 -158l45 -26q58 26 117 26q47 0 77 -23.5t30 -58.5q0 -43 -36.5 -67.5t-96.5 -24.5q-93 0 -158 68h-8z" />
<glyph unicode="&#xba;" horiz-adv-x="858" d="M94 1026q0 142 95.5 236t238.5 94q145 0 240.5 -94t95.5 -236t-95.5 -236t-240.5 -94q-143 0 -238.5 94t-95.5 236zM190 1026q0 -104 67.5 -172t170.5 -68q104 0 172 68t68 172q0 106 -68 174t-172 68q-103 0 -170.5 -68.5t-67.5 -173.5z" />
<glyph unicode="&#xbb;" horiz-adv-x="897" d="M133 309v8l248 289l-248 289v6l55 57h9l299 -342v-20l-299 -342h-9zM440 309v8l248 289l-248 289v6l56 57h8l299 -342v-20l-299 -342h-8z" />
<glyph unicode="&#xbc;" horiz-adv-x="1323" d="M84 1251l25 80h229v-758h-102v672h-148zM96 12l1022 1319h94l5 -12l-1020 -1319h-97zM659 172v59l400 519h67v-496h91v-82h-91v-172h-90v172h-377zM766 254h270v344z" />
<glyph unicode="&#xbd;" horiz-adv-x="1437" d="M94 12l1022 1319h94l4 -12l-1019 -1319h-97zM104 1251l25 80h229v-758h-102v672h-147zM827 0v53q35 32 97.5 89t90 82.5t71 67.5t62.5 66t41 55.5t30 57t8 51.5q0 64 -38 104t-106 40q-97 0 -186 -93h-6l-51 58v6q44 49 108.5 81t134.5 32q118 0 181 -62t63 -164 q0 -59 -46 -131t-93.5 -121.5t-177.5 -172.5q-8 -9 -13 -13h353v-86h-523z" />
<glyph unicode="&#xbe;" horiz-adv-x="1480" d="M74 690v6l53 52h6q87 -93 203 -93q67 0 113.5 42t46.5 106q0 69 -50 109t-139 40h-49v76h37q72 0 116 35.5t44 93.5q0 51 -37 84t-101 33q-95 0 -159 -72h-6l-54 47v6q85 101 219 101q108 0 170 -54.5t62 -136.5q0 -52 -27.5 -96.5t-77.5 -73.5q73 -24 113.5 -79 t40.5 -125q0 -88 -73.5 -153t-190.5 -65q-149 0 -260 117zM260 12l1022 1319h94l4 -12l-1020 -1319h-96zM815 172v59l399 519h68v-496h90v-82h-90v-172h-90v172h-377zM922 254h270v344z" />
<glyph unicode="&#xbf;" horiz-adv-x="987" d="M78 45q0 46 12.5 89.5t28 74.5t47 69t50 56.5t57.5 55t51 48.5q65 62 90.5 112.5t25.5 123.5v86h103v-84q0 -95 -36 -162.5t-110 -136.5q-12 -12 -52.5 -49.5t-60 -59t-47 -58.5t-39.5 -76t-12 -83q0 -123 93 -199.5t225 -76.5q127 0 214.5 75t117.5 185l8 4l86 -23l2 -8 q-35 -142 -150 -234.5t-282 -92.5q-180 0 -301 103.5t-121 260.5zM395 979q0 40 28.5 68t68.5 28t68 -28t28 -68t-28 -68t-68 -28t-68.5 28t-28.5 68z" />
<glyph unicode="&#xc0;" horiz-adv-x="1435" d="M6 12l27 74l8 2q24 -16 51 -16q33 0 53 20q17 17 45 82l498 1157h66l489 -1157q28 -65 47 -82q20 -20 51 -20q32 0 52 16l8 -2l26 -74l-4 -8q-42 -29 -90 -29q-64 0 -104 37q-40 33 -80 125l-76 182h-713l-77 -182q-40 -92 -80 -125q-43 -37 -101 -37q-50 0 -92 29z M367 1659v6l51 80h8l360 -236v-8l-32 -51h-9zM399 414h633l-313 747z" />
<glyph unicode="&#xc1;" horiz-adv-x="1435" d="M6 12l27 74l8 2q24 -16 51 -16q33 0 53 20q17 17 45 82l498 1157h66l489 -1157q28 -65 47 -82q20 -20 51 -20q32 0 52 16l8 -2l26 -74l-4 -8q-42 -29 -90 -29q-64 0 -104 37q-40 33 -80 125l-76 182h-713l-77 -182q-40 -92 -80 -125q-43 -37 -101 -37q-50 0 -92 29z M399 414h633l-313 747zM655 1501v8l361 236h8l51 -80v-6l-379 -209h-8z" />
<glyph unicode="&#xc2;" horiz-adv-x="1435" d="M6 12l27 74l8 2q24 -16 51 -16q33 0 53 20q17 17 45 82l498 1157h66l489 -1157q28 -65 47 -82q20 -20 51 -20q32 0 52 16l8 -2l26 -74l-4 -8q-42 -29 -90 -29q-64 0 -104 37q-40 33 -80 125l-76 182h-713l-77 -182q-40 -92 -80 -125q-43 -37 -101 -37q-50 0 -92 29z M399 414h633l-313 747zM406 1497v6l305 185h14l305 -185v-6l-39 -59h-8l-264 143l-266 -143h-9z" />
<glyph unicode="&#xc3;" horiz-adv-x="1435" d="M6 12l27 74l8 2q24 -16 51 -16q33 0 53 20q17 17 45 82l498 1157h66l489 -1157q28 -65 47 -82q20 -20 51 -20q32 0 52 16l8 -2l26 -74l-4 -8q-42 -29 -90 -29q-64 0 -104 37q-40 33 -80 125l-76 182h-713l-77 -182q-40 -92 -80 -125q-43 -37 -101 -37q-50 0 -92 29z M373 1546v6q58 86 170 86q63 0 182 -36.5t174 -36.5q40 0 70.5 20.5t46.5 52.5h6l45 -73v-6q-58 -86 -168 -86q-63 0 -180 37.5t-176 37.5q-41 0 -72 -21t-47 -54h-6zM399 414h633l-313 747z" />
<glyph unicode="&#xc4;" horiz-adv-x="1435" d="M6 12l27 74l8 2q24 -16 51 -16q33 0 53 20q17 17 45 82l498 1157h66l489 -1157q28 -65 47 -82q20 -20 51 -20q32 0 52 16l8 -2l26 -74l-4 -8q-42 -29 -90 -29q-64 0 -104 37q-40 33 -80 125l-76 182h-713l-77 -182q-40 -92 -80 -125q-43 -37 -101 -37q-50 0 -92 29z M399 414h633l-313 747zM444 1544q0 40 28.5 68t68.5 28t68 -28t28 -68t-28 -68t-68 -28t-68.5 28t-28.5 68zM805 1544q0 40 28 68t68 28t68 -28t28 -68t-28 -68t-68 -28t-68 28t-28 68z" />
<glyph unicode="&#xc5;" horiz-adv-x="1435" d="M6 12l27 74l8 2q24 -16 51 -16q33 0 53 20q17 17 45 82l498 1157h66l489 -1157q28 -65 47 -82q20 -20 51 -20q32 0 52 16l8 -2l26 -74l-4 -8q-42 -29 -90 -29q-64 0 -104 37q-40 33 -80 125l-76 182h-713l-77 -182q-40 -92 -80 -125q-43 -37 -101 -37q-50 0 -92 29z M399 414h633l-313 747zM537 1620q0 75 53.5 127.5t130.5 52.5t130.5 -52.5t53.5 -127.5t-53.5 -127.5t-130.5 -52.5t-130.5 52.5t-53.5 127.5zM614 1620q0 -43 30.5 -76t76.5 -33t76 33t30 76t-30 74.5t-76 31.5t-76.5 -31.5t-30.5 -74.5z" />
<glyph unicode="&#xc6;" horiz-adv-x="1921" d="M-29 0l971 1331h891v-94h-735v-518h579v-92h-579v-533h735v-94h-840v319h-667l-236 -319h-119zM395 414h598v809z" />
<glyph unicode="&#xc7;" horiz-adv-x="1411" d="M100 666q0 193 91 351t250.5 248.5t355.5 90.5q163 0 305 -69t237 -189v-8l-71 -56h-8q-78 105 -200.5 164t-262.5 59q-165 0 -300 -76t-212.5 -212t-77.5 -303q0 -166 77.5 -302t212.5 -213t300 -77q140 0 262.5 59t200.5 164h8l71 -55v-9q-92 -116 -226 -184t-290 -74 l-26 -63l2 -4q30 12 75 12q67 0 111.5 -42.5t44.5 -108.5q0 -82 -61 -131.5t-162 -49.5q-63 0 -125.5 23.5t-99.5 60.5v9l49 55h8q65 -68 158 -68q60 0 96.5 24.5t36.5 67.5q0 35 -30 58.5t-77 23.5q-58 0 -116 -26l-45 26l59 138q-133 13 -248 70.5t-197 147.5t-129 211 t-47 257z" />
<glyph unicode="&#xc8;" horiz-adv-x="1128" d="M201 0v1331h839v-94h-735v-518h580v-92h-580v-533h735v-94h-839zM410 1659v6l51 80h8l360 -236v-8l-32 -51h-9z" />
<glyph unicode="&#xc9;" horiz-adv-x="1128" d="M201 0v1331h839v-94h-735v-518h580v-92h-580v-533h735v-94h-839zM410 1501v8l360 236h8l51 -80v-6l-378 -209h-9z" />
<glyph unicode="&#xca;" horiz-adv-x="1128" d="M201 0v1331h839v-94h-735v-518h580v-92h-580v-533h735v-94h-839zM305 1497v6l305 185h15l305 -185v-6l-39 -59h-8l-265 143l-266 -143h-8z" />
<glyph unicode="&#xcb;" horiz-adv-x="1128" d="M201 0v1331h839v-94h-735v-518h580v-92h-580v-533h735v-94h-839zM344 1544q0 40 28 68t68 28t68.5 -28t28.5 -68t-28.5 -68t-68.5 -28t-68 28t-28 68zM705 1544q0 40 28 68t68 28t68 -28t28 -68t-28 -68t-68 -28t-68 28t-28 68z" />
<glyph unicode="&#xcc;" horiz-adv-x="714" d="M78 0v92h227v1149h-227v90h559v-90h-227v-1149h227v-92h-559zM147 1659v6l52 80h8l360 -236v-8l-32 -51h-9z" />
<glyph unicode="&#xcd;" horiz-adv-x="714" d="M78 0v92h227v1149h-227v90h559v-90h-227v-1149h227v-92h-559zM147 1501v8l361 236h8l51 -80v-6l-379 -209h-8z" />
<glyph unicode="&#xce;" horiz-adv-x="714" d="M43 1497v6l305 185h14l306 -185v-6l-39 -59h-8l-265 143l-266 -143h-8zM78 0v92h227v1149h-227v90h559v-90h-227v-1149h227v-92h-559z" />
<glyph unicode="&#xcf;" horiz-adv-x="714" d="M78 0v92h227v1149h-227v90h559v-90h-227v-1149h227v-92h-559zM82 1544q0 40 28 68t68 28t68 -28t28 -68t-28 -68t-68 -28t-68 28t-28 68zM442 1544q0 40 28.5 68t68.5 28t68 -28t28 -68t-28 -68t-68 -28t-68.5 28t-28.5 68z" />
<glyph unicode="&#xd0;" horiz-adv-x="1474" d="M39 625v94h168v612h479q313 0 499.5 -182t186.5 -481q0 -302 -186 -485t-500 -183h-479v625h-168zM311 94h375q267 0 422.5 156t155.5 416t-155.5 415.5t-422.5 155.5h-375v-518h414v-94h-414v-531z" />
<glyph unicode="&#xd1;" horiz-adv-x="1490" d="M201 0v1331h65l922 -1128v1128h102v-1331h-65l-922 1128v-1128h-102zM383 1546v6q62 86 180 86q67 0 193.5 -36.5t185.5 -36.5q43 0 75 20.5t48 52.5h8l47 -73v-6q-62 -86 -178 -86q-67 0 -191.5 37.5t-187.5 37.5q-44 0 -76.5 -21t-48.5 -54h-8z" />
<glyph unicode="&#xd2;" horiz-adv-x="1601" d="M98 666q0 193 91.5 351t253 248.5t358.5 90.5q148 0 278.5 -53t223.5 -145t146.5 -220t53.5 -272t-53.5 -272.5t-146.5 -220t-223.5 -145t-278.5 -53.5t-278.5 53.5t-223.5 145t-147 220t-54 272.5zM205 666q0 -167 77.5 -302.5t214 -212.5t304.5 -77t304.5 77t214 212.5 t77.5 302.5t-77.5 302.5t-214 212t-304.5 76.5t-304.5 -76.5t-214 -212t-77.5 -302.5zM590 1659v6l51 80h8l361 -236v-8l-33 -51h-8z" />
<glyph unicode="&#xd3;" horiz-adv-x="1601" d="M98 666q0 193 91.5 351t253 248.5t358.5 90.5q148 0 278.5 -53t223.5 -145t146.5 -220t53.5 -272t-53.5 -272.5t-146.5 -220t-223.5 -145t-278.5 -53.5t-278.5 53.5t-223.5 145t-147 220t-54 272.5zM205 666q0 -167 77.5 -302.5t214 -212.5t304.5 -77t304.5 77t214 212.5 t77.5 302.5t-77.5 302.5t-214 212t-304.5 76.5t-304.5 -76.5t-214 -212t-77.5 -302.5zM590 1501v8l360 236h8l52 -80v-6l-379 -209h-8z" />
<glyph unicode="&#xd4;" horiz-adv-x="1601" d="M98 666q0 193 91.5 351t253 248.5t358.5 90.5q148 0 278.5 -53t223.5 -145t146.5 -220t53.5 -272t-53.5 -272.5t-146.5 -220t-223.5 -145t-278.5 -53.5t-278.5 53.5t-223.5 145t-147 220t-54 272.5zM205 666q0 -167 77.5 -302.5t214 -212.5t304.5 -77t304.5 77t214 212.5 t77.5 302.5t-77.5 302.5t-214 212t-304.5 76.5t-304.5 -76.5t-214 -212t-77.5 -302.5zM485 1497v6l306 185h14l305 -185v-6l-39 -59h-8l-264 143l-267 -143h-8z" />
<glyph unicode="&#xd5;" horiz-adv-x="1601" d="M98 666q0 193 91.5 351t253 248.5t358.5 90.5q148 0 278.5 -53t223.5 -145t146.5 -220t53.5 -272t-53.5 -272.5t-146.5 -220t-223.5 -145t-278.5 -53.5t-278.5 53.5t-223.5 145t-147 220t-54 272.5zM205 666q0 -167 77.5 -302.5t214 -212.5t304.5 -77t304.5 77t214 212.5 t77.5 302.5t-77.5 302.5t-214 212t-304.5 76.5t-304.5 -76.5t-214 -212t-77.5 -302.5zM432 1546v6q62 86 180 86q67 0 193.5 -36.5t185.5 -36.5q43 0 75 20.5t48 52.5h8l47 -73v-6q-62 -86 -178 -86q-67 0 -191.5 37.5t-187.5 37.5q-44 0 -76.5 -21t-48.5 -54h-8z" />
<glyph unicode="&#xd6;" horiz-adv-x="1601" d="M98 666q0 193 91.5 351t253 248.5t358.5 90.5q148 0 278.5 -53t223.5 -145t146.5 -220t53.5 -272t-53.5 -272.5t-146.5 -220t-223.5 -145t-278.5 -53.5t-278.5 53.5t-223.5 145t-147 220t-54 272.5zM205 666q0 -167 77.5 -302.5t214 -212.5t304.5 -77t304.5 77t214 212.5 t77.5 302.5t-77.5 302.5t-214 212t-304.5 76.5t-304.5 -76.5t-214 -212t-77.5 -302.5zM524 1544q0 40 28.5 68t68.5 28t68 -28t28 -68t-28 -68t-68 -28t-68.5 28t-28.5 68zM885 1544q0 40 28 68t68 28t68 -28t28 -68t-28 -68t-68 -28t-68 28t-28 68z" />
<glyph unicode="&#xd7;" horiz-adv-x="1079" d="M106 1036l66 66l371 -369l366 367l60 -62l-367 -364l371 -371l-66 -67l-370 372l-367 -368l-61 59l368 367z" />
<glyph unicode="&#xd8;" horiz-adv-x="1601" d="M98 666q0 193 91.5 351t253 248.5t358.5 90.5q183 0 340 -80l114 172h107l4 -12l-141 -213q131 -93 204.5 -238.5t73.5 -318.5q0 -144 -53.5 -272.5t-146.5 -220t-223.5 -145t-278.5 -53.5q-188 0 -346 84l-109 -161h-108l-5 12l136 205q-127 94 -199 238t-72 313z M205 666q0 -144 58.5 -265t162.5 -202l659 993q-133 65 -284 65q-168 0 -304.5 -76.5t-214 -212t-77.5 -302.5zM510 143q129 -69 291 -69q168 0 304.5 77t214 212.5t77.5 302.5q0 146 -60.5 269t-167.5 204z" />
<glyph unicode="&#xd9;" horiz-adv-x="1439" d="M59 1319l4 8q33 29 95 29q69 0 106 -43.5t37 -116.5v-672q0 -210 114.5 -331t313.5 -121q198 0 313 122t115 330v807h103v-811q0 -251 -142.5 -398t-388.5 -147t-389 147t-143 398v645q0 95 -58 95q-27 0 -47 -17l-8 2zM506 1659v6l51 80h8l361 -236v-8l-33 -51h-8z" />
<glyph unicode="&#xda;" horiz-adv-x="1439" d="M59 1319l4 8q33 29 95 29q69 0 106 -43.5t37 -116.5v-672q0 -210 114.5 -331t313.5 -121q198 0 313 122t115 330v807h103v-811q0 -251 -142.5 -398t-388.5 -147t-389 147t-143 398v645q0 95 -58 95q-27 0 -47 -17l-8 2zM506 1501v8l360 236h8l52 -80v-6l-379 -209h-8z " />
<glyph unicode="&#xdb;" horiz-adv-x="1439" d="M59 1319l4 8q33 29 95 29q69 0 106 -43.5t37 -116.5v-672q0 -210 114.5 -331t313.5 -121q198 0 313 122t115 330v807h103v-811q0 -251 -142.5 -398t-388.5 -147t-389 147t-143 398v645q0 95 -58 95q-27 0 -47 -17l-8 2zM401 1497v6l306 185h14l305 -185v-6l-39 -59h-8 l-264 143l-266 -143h-9z" />
<glyph unicode="&#xdc;" horiz-adv-x="1439" d="M59 1319l4 8q33 29 95 29q69 0 106 -43.5t37 -116.5v-672q0 -210 114.5 -331t313.5 -121q198 0 313 122t115 330v807h103v-811q0 -251 -142.5 -398t-388.5 -147t-389 147t-143 398v645q0 95 -58 95q-27 0 -47 -17l-8 2zM440 1544q0 40 28.5 68t68.5 28t68 -28t28 -68 t-28 -68t-68 -28t-68.5 28t-28.5 68zM801 1544q0 40 28 68t68 28t68 -28t28 -68t-28 -68t-68 -28t-68 28t-28 68z" />
<glyph unicode="&#xdd;" horiz-adv-x="1370" d="M12 1319l4 8q39 29 90 29q63 0 107.5 -36.5t101.5 -119.5l373 -559l373 559q54 81 97.5 118.5t103.5 37.5q53 0 90 -29l4 -8l-27 -74l-8 -2q-21 17 -53 17q-29 0 -54 -19.5t-61 -71.5l-414 -616v-553h-106v551l-416 618q-36 52 -61 71.5t-54 19.5q-32 0 -53 -17l-8 2z M477 1501v8l361 236h8l51 -80v-6l-379 -209h-8z" />
<glyph unicode="&#xde;" horiz-adv-x="1198" d="M201 0v1331h104v-272h379q211 0 327.5 -105t116.5 -288t-117 -288.5t-327 -105.5h-379v-272h-104zM305 365h404q144 0 227.5 84t83.5 217t-83.5 217t-227.5 84h-404v-602z" />
<glyph unicode="&#xdf;" horiz-adv-x="1136" d="M162 0v967q0 175 112 282t297 107q177 0 285.5 -94.5t108.5 -247.5q0 -97 -47 -171.5t-127 -115.5q123 -38 189.5 -130.5t66.5 -223.5q0 -123 -61 -215t-157.5 -137.5t-212.5 -45.5q-97 0 -180 39l-2 9l33 73h8q51 -28 139 -28q136 0 233 79.5t97 221.5t-98.5 225.5 t-255.5 83.5h-74v82h70q122 0 199 70t77 182q0 113 -80.5 183.5t-210.5 70.5q-141 0 -225 -83t-84 -220v-963h-100z" />
<glyph unicode="&#xe0;" d="M90 512q0 149 65 271.5t183.5 194t267.5 71.5q133 0 239.5 -56.5t176.5 -154.5v186h100v-864q0 -94 58 -94q29 0 45 16l8 -2l22 -68l-4 -10q-36 -27 -88 -27q-65 0 -101 44t-36 116v60q-68 -102 -177 -161t-243 -59q-111 0 -208 42t-164 114t-105.5 171t-38.5 210z M195 512q0 -189 116.5 -316.5t302.5 -127.5q178 0 298 123.5t120 320.5q0 199 -119 321.5t-299 122.5q-185 0 -302 -128.5t-117 -315.5zM438 1389v8l62 76h8l332 -269v-8l-39 -49h-6z" />
<glyph unicode="&#xe1;" d="M90 512q0 149 65 271.5t183.5 194t267.5 71.5q133 0 239.5 -56.5t176.5 -154.5v186h100v-864q0 -94 58 -94q29 0 45 16l8 -2l22 -68l-4 -10q-36 -27 -88 -27q-65 0 -101 44t-36 116v60q-68 -102 -177 -161t-243 -59q-111 0 -208 42t-164 114t-105.5 171t-38.5 210z M195 512q0 -189 116.5 -316.5t302.5 -127.5q178 0 298 123.5t120 320.5q0 199 -119 321.5t-299 122.5q-185 0 -302 -128.5t-117 -315.5zM438 1196v8l334 269h6l62 -76v-8l-355 -242h-8z" />
<glyph unicode="&#xe2;" d="M90 512q0 149 65 271.5t183.5 194t267.5 71.5q133 0 239.5 -56.5t176.5 -154.5v186h100v-864q0 -94 58 -94q29 0 45 16l8 -2l22 -68l-4 -10q-36 -27 -88 -27q-65 0 -101 44t-36 116v60q-68 -102 -177 -161t-243 -59q-111 0 -208 42t-164 114t-105.5 171t-38.5 210z M195 512q0 -189 116.5 -316.5t302.5 -127.5q178 0 298 123.5t120 320.5q0 199 -119 321.5t-299 122.5q-185 0 -302 -128.5t-117 -315.5zM340 1202v8l289 187h20l289 -187v-8l-45 -55h-8l-246 143l-248 -143h-6z" />
<glyph unicode="&#xe3;" d="M90 512q0 149 65 271.5t183.5 194t267.5 71.5q133 0 239.5 -56.5t176.5 -154.5v186h100v-864q0 -94 58 -94q29 0 45 16l8 -2l22 -68l-4 -10q-36 -27 -88 -27q-65 0 -101 44t-36 116v60q-68 -102 -177 -161t-243 -59q-111 0 -208 42t-164 114t-105.5 171t-38.5 210z M195 512q0 -189 116.5 -316.5t302.5 -127.5q178 0 298 123.5t120 320.5q0 199 -119 321.5t-299 122.5q-185 0 -302 -128.5t-117 -315.5zM311 1237v8q58 82 156 82q61 0 176 -36t168 -36q76 0 111 72h8l37 -74v-8q-58 -82 -156 -82q-61 0 -173.5 36t-170.5 36q-79 0 -111 -72 h-8z" />
<glyph unicode="&#xe4;" d="M90 512q0 149 65 271.5t183.5 194t267.5 71.5q133 0 239.5 -56.5t176.5 -154.5v186h100v-864q0 -94 58 -94q29 0 45 16l8 -2l22 -68l-4 -10q-36 -27 -88 -27q-65 0 -101 44t-36 116v60q-68 -102 -177 -161t-243 -59q-111 0 -208 42t-164 114t-105.5 171t-38.5 210z M195 512q0 -189 116.5 -316.5t302.5 -127.5q178 0 298 123.5t120 320.5q0 199 -119 321.5t-299 122.5q-185 0 -302 -128.5t-117 -315.5zM385 1241q0 40 28 68t66 28q40 0 68 -28t28 -68t-28 -68t-68 -28q-38 0 -66 28t-28 68zM705 1241q0 40 28 68t66 28q40 0 68 -28t28 -68 t-28 -68t-68 -28q-38 0 -66 28t-28 68z" />
<glyph unicode="&#xe5;" d="M90 512q0 149 65 271.5t183.5 194t267.5 71.5q133 0 239.5 -56.5t176.5 -154.5v186h100v-864q0 -94 58 -94q29 0 45 16l8 -2l22 -68l-4 -10q-36 -27 -88 -27q-65 0 -101 44t-36 116v60q-68 -102 -177 -161t-243 -59q-111 0 -208 42t-164 114t-105.5 171t-38.5 210z M195 512q0 -189 116.5 -316.5t302.5 -127.5q178 0 298 123.5t120 320.5q0 199 -119 321.5t-299 122.5q-185 0 -302 -128.5t-117 -315.5zM453 1311q0 75 54 127.5t132 52.5q79 0 132.5 -52.5t53.5 -127.5q0 -76 -53.5 -128.5t-132.5 -52.5q-78 0 -132 53t-54 128zM537 1311 q0 -42 28.5 -72.5t73.5 -30.5q47 0 74.5 30.5t27.5 72.5t-27.5 72t-74.5 30q-46 0 -74 -30t-28 -72z" />
<glyph unicode="&#xe6;" horiz-adv-x="1959" d="M82 309q0 109 62.5 185.5t159 110.5t216.5 34q184 0 334 -70v107q0 69 -29.5 124.5t-77.5 88.5t-104.5 50t-114.5 17q-111 0 -191 -38t-151 -111h-8l-63 55v8q169 179 413 179q86 0 163 -23t144 -79.5t97 -139.5q68 113 181.5 177.5t258.5 64.5q114 0 210 -41t160 -112 t100 -167t36 -205q0 -33 -2 -45h-918q12 -187 135.5 -299t299.5 -112q114 0 219 48t166 132h8l65 -55v-9q-72 -98 -196.5 -153.5t-259.5 -55.5q-152 0 -278.5 70t-196.5 195q-30 -85 -101.5 -146.5t-158 -90t-179.5 -28.5q-172 0 -285.5 89t-113.5 245zM186 307 q0 -112 87.5 -175.5t220.5 -63.5q66 0 129.5 20.5t115.5 58t83.5 97t31.5 131.5v106q-156 70 -334 70q-142 0 -238 -64.5t-96 -179.5zM961 567h813q-14 179 -120.5 284t-277.5 105q-174 0 -288.5 -107.5t-126.5 -281.5z" />
<glyph unicode="&#xe7;" horiz-adv-x="1126" d="M90 512q0 228 153.5 382.5t385.5 154.5q132 0 244 -52.5t182 -144.5v-8l-64 -51h-8q-135 163 -354 163q-189 0 -311.5 -127t-122.5 -317q0 -191 121.5 -317.5t312.5 -126.5q228 0 354 163h8l64 -49v-10q-64 -84 -164 -136t-219 -59l-27 -65l2 -4q30 12 76 12 q67 0 111.5 -42.5t44.5 -108.5q0 -82 -61.5 -131.5t-162.5 -49.5q-63 0 -125.5 23.5t-99.5 60.5v9l49 55h8q65 -68 158 -68q60 0 96.5 24.5t36.5 67.5q0 36 -29.5 59t-76.5 23q-59 0 -117 -26l-45 26l57 135q-209 22 -343 172.5t-134 362.5z" />
<glyph unicode="&#xe8;" horiz-adv-x="1196" d="M90 510q0 233 144.5 386t373.5 153q114 0 210 -41t160 -112t100 -167t36 -205q0 -33 -2 -45h-917q12 -188 135 -299.5t299 -111.5q114 0 219 48t166 132h8l65 -55v-9q-72 -98 -196.5 -153.5t-259.5 -55.5q-147 0 -269 63.5t-197 187t-75 284.5zM197 567h813 q-14 179 -120.5 284t-277.5 105q-174 0 -288.5 -107.5t-126.5 -281.5zM414 1389v8l61 76h8l332 -269v-8l-39 -49h-6z" />
<glyph unicode="&#xe9;" horiz-adv-x="1196" d="M90 510q0 233 144.5 386t373.5 153q114 0 210 -41t160 -112t100 -167t36 -205q0 -33 -2 -45h-917q12 -188 135 -299.5t299 -111.5q114 0 219 48t166 132h8l65 -55v-9q-72 -98 -196.5 -153.5t-259.5 -55.5q-147 0 -269 63.5t-197 187t-75 284.5zM197 567h813 q-14 179 -120.5 284t-277.5 105q-174 0 -288.5 -107.5t-126.5 -281.5zM414 1196v8l334 269h6l61 -76v-8l-354 -242h-8z" />
<glyph unicode="&#xea;" horiz-adv-x="1196" d="M90 510q0 233 144.5 386t373.5 153q114 0 210 -41t160 -112t100 -167t36 -205q0 -33 -2 -45h-917q12 -188 135 -299.5t299 -111.5q114 0 219 48t166 132h8l65 -55v-9q-72 -98 -196.5 -153.5t-259.5 -55.5q-147 0 -269 63.5t-197 187t-75 284.5zM197 567h813 q-14 179 -120.5 284t-277.5 105q-174 0 -288.5 -107.5t-126.5 -281.5zM315 1202v8l289 187h21l288 -187v-8l-45 -55h-8l-246 143l-247 -143h-7z" />
<glyph unicode="&#xeb;" horiz-adv-x="1196" d="M90 510q0 233 144.5 386t373.5 153q114 0 210 -41t160 -112t100 -167t36 -205q0 -33 -2 -45h-917q12 -188 135 -299.5t299 -111.5q114 0 219 48t166 132h8l65 -55v-9q-72 -98 -196.5 -153.5t-259.5 -55.5q-147 0 -269 63.5t-197 187t-75 284.5zM197 567h813 q-14 179 -120.5 284t-277.5 105q-174 0 -288.5 -107.5t-126.5 -281.5zM360 1241q0 39 28 67.5t67 28.5q40 0 68 -28t28 -68t-28 -68t-68 -28q-39 0 -67 28.5t-28 67.5zM680 1241q0 40 28 68t66 28q40 0 68 -28t28 -68t-28 -68t-68 -28q-38 0 -66 28t-28 68z" />
<glyph unicode="&#xec;" horiz-adv-x="438" d="M6 1389v8l62 76h8l332 -269v-8l-39 -49h-7zM158 137v887h100v-864q0 -94 55 -94q22 0 43 14l9 -2l22 -70l-4 -8q-33 -25 -86 -25q-67 0 -103 44.5t-36 117.5z" />
<glyph unicode="&#xed;" horiz-adv-x="438" d="M6 1196v8l334 269h6l62 -76v-8l-355 -242h-8zM158 137v887h100v-864q0 -94 55 -94q22 0 43 14l9 -2l22 -70l-4 -8q-33 -25 -86 -25q-67 0 -103 44.5t-36 117.5z" />
<glyph unicode="&#xee;" horiz-adv-x="438" d="M-92 1202v8l289 187h20l289 -187v-8l-45 -55h-8l-246 143l-248 -143h-6zM158 137v887h100v-864q0 -94 55 -94q22 0 43 14l9 -2l22 -70l-4 -8q-33 -25 -86 -25q-67 0 -103 44.5t-36 117.5z" />
<glyph unicode="&#xef;" horiz-adv-x="438" d="M-47 1241q0 40 28 68t66 28q40 0 68 -28t28 -68t-28 -68t-68 -28q-38 0 -66 28t-28 68zM158 137v887h100v-864q0 -94 55 -94q22 0 43 14l9 -2l22 -70l-4 -8q-33 -25 -86 -25q-67 0 -103 44.5t-36 117.5zM272 1241q0 39 28 67.5t67 28.5q40 0 68 -28t28 -68t-28 -68 t-68 -28q-39 0 -67 28.5t-28 67.5z" />
<glyph unicode="&#xf0;" horiz-adv-x="1157" d="M88 463q0 206 140 345.5t350 139.5q144 0 256 -67q-46 76 -144 202l-227 -82l-6 9v77l178 66q-68 79 -160 174v8l64 54h8q95 -98 180 -203l266 98l8 -6v-80l-219 -80q288 -373 285 -655q1 -135 -62 -247t-176 -176.5t-251 -64.5t-250.5 64.5t-176 176.5t-63.5 247z M193 463q0 -169 109 -281t276 -112t277 112t110 281t-109 280t-276 111q-168 0 -277.5 -111.5t-109.5 -279.5z" />
<glyph unicode="&#xf1;" horiz-adv-x="1232" d="M51 1012l4 10q36 27 88 27q65 0 101.5 -42t36.5 -112v-31q57 87 151.5 136t214.5 49q188 0 302 -114.5t114 -301.5v-473q0 -94 55 -94q26 0 43 14l8 -2l23 -70l-4 -8q-29 -25 -84 -25q-69 0 -106 44.5t-37 117.5v488q0 151 -89 241t-237 90q-155 0 -251.5 -95t-96.5 -245 v-616h-103v864q0 97 -57 97q-22 0 -45 -19l-8 2zM291 1237v8q58 82 155 82q61 0 176.5 -36t168.5 -36q75 0 110 72h8l37 -74v-8q-58 -82 -155 -82q-61 0 -174 36t-171 36q-78 0 -110 -72h-8z" />
<glyph unicode="&#xf2;" horiz-adv-x="1265" d="M90 512q0 228 155.5 382.5t387.5 154.5t387.5 -154.5t155.5 -382.5t-155.5 -382.5t-387.5 -154.5t-387.5 154.5t-155.5 382.5zM195 512q0 -191 124 -317.5t314 -126.5t314 126.5t124 317.5t-124 317.5t-314 126.5t-314 -126.5t-124 -317.5zM432 1389v8l62 76h8l332 -269 v-8l-39 -49h-7z" />
<glyph unicode="&#xf3;" horiz-adv-x="1265" d="M90 512q0 228 155.5 382.5t387.5 154.5t387.5 -154.5t155.5 -382.5t-155.5 -382.5t-387.5 -154.5t-387.5 154.5t-155.5 382.5zM195 512q0 -191 124 -317.5t314 -126.5t314 126.5t124 317.5t-124 317.5t-314 126.5t-314 -126.5t-124 -317.5zM432 1196v8l334 269h6l62 -76 v-8l-355 -242h-8z" />
<glyph unicode="&#xf4;" horiz-adv-x="1265" d="M90 512q0 228 155.5 382.5t387.5 154.5t387.5 -154.5t155.5 -382.5t-155.5 -382.5t-387.5 -154.5t-387.5 154.5t-155.5 382.5zM195 512q0 -191 124 -317.5t314 -126.5t314 126.5t124 317.5t-124 317.5t-314 126.5t-314 -126.5t-124 -317.5zM334 1202v8l289 187h20 l289 -187v-8l-45 -55h-8l-246 143l-248 -143h-6z" />
<glyph unicode="&#xf5;" horiz-adv-x="1265" d="M90 512q0 228 155.5 382.5t387.5 154.5t387.5 -154.5t155.5 -382.5t-155.5 -382.5t-387.5 -154.5t-387.5 154.5t-155.5 382.5zM195 512q0 -191 124 -317.5t314 -126.5t314 126.5t124 317.5t-124 317.5t-314 126.5t-314 -126.5t-124 -317.5zM305 1237v8q58 82 156 82 q61 0 176 -36t168 -36q75 0 110 72h9l37 -74v-8q-58 -82 -156 -82q-61 0 -173.5 36t-170.5 36q-79 0 -111 -72h-8z" />
<glyph unicode="&#xf6;" horiz-adv-x="1265" d="M90 512q0 228 155.5 382.5t387.5 154.5t387.5 -154.5t155.5 -382.5t-155.5 -382.5t-387.5 -154.5t-387.5 154.5t-155.5 382.5zM195 512q0 -191 124 -317.5t314 -126.5t314 126.5t124 317.5t-124 317.5t-314 126.5t-314 -126.5t-124 -317.5zM379 1241q0 40 28 68t66 28 q40 0 68 -28t28 -68t-28 -68t-68 -28q-38 0 -66 28t-28 68zM698 1241q0 39 28 67.5t67 28.5q40 0 68 -28t28 -68t-28 -68t-68 -28q-39 0 -67 28.5t-28 67.5z" />
<glyph unicode="&#xf7;" horiz-adv-x="1093" d="M129 571v86h836v-86h-836zM457 299q0 40 28 68t68 28t68 -28t28 -68t-28 -68t-68 -28t-68 28t-28 68zM457 956q0 40 28 68.5t68 28.5t68 -28.5t28 -68.5t-28 -68t-68 -28t-68 28t-28 68z" />
<glyph unicode="&#xf8;" horiz-adv-x="1265" d="M90 512q0 228 155.5 382.5t387.5 154.5q147 0 270 -68l115 164h104l6 -6l-147 -209q92 -74 143.5 -183t51.5 -235q0 -228 -155.5 -382.5t-387.5 -154.5q-148 0 -271 68l-96 -137h-104l-6 6l129 182q-92 74 -143.5 183t-51.5 235zM195 512q0 -101 38.5 -189t106.5 -149 l510 729q-95 53 -217 53q-190 0 -314 -126.5t-124 -317.5zM416 121q95 -53 217 -53q190 0 314 126.5t124 317.5q0 101 -38.5 189t-106.5 149z" />
<glyph unicode="&#xf9;" horiz-adv-x="1210" d="M37 1012l4 10q36 27 88 27q68 0 104.5 -41t36.5 -113v-508q0 -149 87 -234t233 -85q143 0 239.5 96t96.5 244v616h100v-864q0 -94 55 -94q28 0 47 16l9 -2l22 -68l-4 -10q-36 -27 -88 -27q-65 0 -101 44t-36 116v25q-57 -86 -149.5 -135.5t-207.5 -49.5 q-184 0 -293.5 109.5t-109.5 294.5v485q0 97 -55 97q-24 0 -47 -19l-9 2zM391 1389v8l62 76h8l332 -269v-8l-39 -49h-6z" />
<glyph unicode="&#xfa;" horiz-adv-x="1210" d="M37 1012l4 10q36 27 88 27q68 0 104.5 -41t36.5 -113v-508q0 -149 87 -234t233 -85q143 0 239.5 96t96.5 244v616h100v-864q0 -94 55 -94q28 0 47 16l9 -2l22 -68l-4 -10q-36 -27 -88 -27q-65 0 -101 44t-36 116v25q-57 -86 -149.5 -135.5t-207.5 -49.5 q-184 0 -293.5 109.5t-109.5 294.5v485q0 97 -55 97q-24 0 -47 -19l-9 2zM391 1196v8l334 269h6l62 -76v-8l-355 -242h-8z" />
<glyph unicode="&#xfb;" horiz-adv-x="1210" d="M37 1012l4 10q36 27 88 27q68 0 104.5 -41t36.5 -113v-508q0 -149 87 -234t233 -85q143 0 239.5 96t96.5 244v616h100v-864q0 -94 55 -94q28 0 47 16l9 -2l22 -68l-4 -10q-36 -27 -88 -27q-65 0 -101 44t-36 116v25q-57 -86 -149.5 -135.5t-207.5 -49.5 q-184 0 -293.5 109.5t-109.5 294.5v485q0 97 -55 97q-24 0 -47 -19l-9 2zM293 1202v8l289 187h20l289 -187v-8l-45 -55h-8l-246 143l-248 -143h-6z" />
<glyph unicode="&#xfc;" horiz-adv-x="1210" d="M37 1012l4 10q36 27 88 27q68 0 104.5 -41t36.5 -113v-508q0 -149 87 -234t233 -85q143 0 239.5 96t96.5 244v616h100v-864q0 -94 55 -94q28 0 47 16l9 -2l22 -68l-4 -10q-36 -27 -88 -27q-65 0 -101 44t-36 116v25q-57 -86 -149.5 -135.5t-207.5 -49.5 q-184 0 -293.5 109.5t-109.5 294.5v485q0 97 -55 97q-24 0 -47 -19l-9 2zM338 1241q0 40 28 68t66 28q40 0 68 -28t28 -68t-28 -68t-68 -28q-38 0 -66 28t-28 68zM657 1241q0 39 28.5 67.5t66.5 28.5q40 0 68 -28t28 -68t-28 -68t-68 -28q-38 0 -66.5 28.5t-28.5 67.5z" />
<glyph unicode="&#xfd;" horiz-adv-x="1173" d="M25 1012l4 10q41 27 88 27q68 0 104.5 -41t36.5 -113v-416q0 -143 85 -222t228 -79t242.5 96.5t99.5 243.5v506h101v-866q0 -148 -62.5 -255t-167 -158.5t-239.5 -51.5q-116 0 -216.5 46.5t-174.5 133.5v8l55 60h8q62 -74 146.5 -116t181.5 -42q168 0 268 99.5t100 275.5 v100q-61 -80 -153.5 -126t-200.5 -46q-186 0 -293.5 104t-107.5 293v381q0 97 -56 97q-24 0 -47 -19l-8 2zM358 1196v8l334 269h6l62 -76v-8l-354 -242h-9z" />
<glyph unicode="&#xfe;" horiz-adv-x="1284" d="M29 1319l4 10q36 27 88 27q65 0 101 -44t36 -116v-367q68 102 175.5 161t240.5 59q152 0 271.5 -72t184 -194t64.5 -271t-64.5 -271t-184 -194t-271.5 -72q-131 0 -237.5 57t-174.5 156v-495h-100v1478q0 97 -56 97q-24 0 -47 -19l-8 2zM252 512q0 -202 119 -323 t303 -121q182 0 299 127.5t117 316.5q0 187 -117 315.5t-299 128.5q-184 0 -303 -121t-119 -323z" />
<glyph unicode="&#xff;" horiz-adv-x="1173" d="M25 1012l4 10q41 27 88 27q68 0 104.5 -41t36.5 -113v-416q0 -143 85 -222t228 -79t242.5 96.5t99.5 243.5v506h101v-866q0 -148 -62.5 -255t-167 -158.5t-239.5 -51.5q-116 0 -216.5 46.5t-174.5 133.5v8l55 60h8q62 -74 146.5 -116t181.5 -42q168 0 268 99.5t100 275.5 v100q-61 -80 -153.5 -126t-200.5 -46q-186 0 -293.5 104t-107.5 293v381q0 97 -56 97q-24 0 -47 -19l-8 2zM305 1241q0 40 28 68t66 28q40 0 68.5 -28t28.5 -68t-28.5 -68t-68.5 -28q-38 0 -66 28t-28 68zM625 1241q0 40 28 68t66 28q40 0 68 -28t28 -68t-28 -68t-68 -28 q-38 0 -66 28t-28 68z" />
<glyph unicode="&#x152;" horiz-adv-x="2326" d="M98 666q0 193 91.5 351t253 248.5t358.5 90.5q190 0 346 -84.5t250 -231.5v291h841v-94h-737v-516v-2h582v-92h-580q-2 -6 -2 -17v-516h737v-94h-841v291q-94 -147 -250 -231.5t-346 -84.5q-148 0 -278.5 53.5t-223.5 145t-147 220t-54 272.5zM205 666 q0 -167 77.5 -302.5t214 -212.5t304.5 -77t304.5 77t214 212.5t77.5 302.5t-77.5 302.5t-214 212t-304.5 76.5t-304.5 -76.5t-214 -212t-77.5 -302.5z" />
<glyph unicode="&#x153;" horiz-adv-x="2177" d="M90 512q0 228 155.5 382.5t387.5 154.5q163 0 292 -80t195 -215q61 136 184.5 215.5t284.5 79.5q114 0 210 -41t160 -112t100 -167t36 -205q0 -33 -2 -45h-917q12 -188 135 -299.5t299 -111.5q114 0 219 48t166 132h8l65 -55v-9q-72 -98 -196.5 -153.5t-259.5 -55.5 q-162 0 -294 78.5t-196 216.5q-66 -134 -196 -214.5t-293 -80.5q-232 0 -387.5 154.5t-155.5 382.5zM195 512q0 -191 124 -317.5t314 -126.5t314 126.5t124 317.5t-124 317.5t-314 126.5t-314 -126.5t-124 -317.5zM1178 567h813q-14 179 -120.5 284t-277.5 105 q-174 0 -288.5 -107.5t-126.5 -281.5z" />
<glyph unicode="&#x178;" horiz-adv-x="1370" d="M12 1319l4 8q39 29 90 29q63 0 107.5 -36.5t101.5 -119.5l373 -559l373 559q54 81 97.5 118.5t103.5 37.5q53 0 90 -29l4 -8l-27 -74l-8 -2q-21 17 -53 17q-29 0 -54 -19.5t-61 -71.5l-414 -616v-553h-106v551l-416 618q-36 52 -61 71.5t-54 19.5q-32 0 -53 -17l-8 2z M412 1544q0 40 28 68t68 28t68 -28t28 -68t-28 -68t-68 -28t-68 28t-28 68zM772 1544q0 40 28 68t68 28t68.5 -28t28.5 -68t-28.5 -68t-68.5 -28t-68 28t-28 68z" />
<glyph unicode="&#x2c6;" horiz-adv-x="737" d="M82 1202v8l289 187h20l289 -187v-8l-45 -55h-8l-246 143l-248 -143h-6z" />
<glyph unicode="&#x2dc;" horiz-adv-x="819" d="M82 1237v8q58 82 156 82q61 0 176 -36t168 -36q75 0 110 72h8l37 -74v-8q-58 -82 -155 -82q-61 0 -173.5 36t-170.5 36q-79 0 -111 -72h-8z" />
<glyph unicode="&#x2000;" horiz-adv-x="900" />
<glyph unicode="&#x2001;" horiz-adv-x="1800" />
<glyph unicode="&#x2002;" horiz-adv-x="900" />
<glyph unicode="&#x2003;" horiz-adv-x="1800" />
<glyph unicode="&#x2004;" horiz-adv-x="600" />
<glyph unicode="&#x2005;" horiz-adv-x="450" />
<glyph unicode="&#x2006;" horiz-adv-x="300" />
<glyph unicode="&#x2007;" horiz-adv-x="300" />
<glyph unicode="&#x2008;" horiz-adv-x="225" />
<glyph unicode="&#x2009;" horiz-adv-x="360" />
<glyph unicode="&#x200a;" horiz-adv-x="100" />
<glyph unicode="&#x2010;" horiz-adv-x="964" d="M139 571v86h686v-86h-686z" />
<glyph unicode="&#x2011;" horiz-adv-x="964" d="M139 571v86h686v-86h-686z" />
<glyph unicode="&#x2012;" horiz-adv-x="964" d="M139 571v86h686v-86h-686z" />
<glyph unicode="&#x2013;" horiz-adv-x="1159" d="M139 571v86h881v-86h-881z" />
<glyph unicode="&#x2014;" horiz-adv-x="1462" d="M139 571v86h1184v-86h-1184z" />
<glyph unicode="&#x2018;" horiz-adv-x="421" d="M104 1075q-3 110 144 314h10l55 -41v-7q-37 -58 -57.5 -107.5t-22.5 -72.5q28 -11 46 -35.5t18 -54.5q0 -40 -27.5 -68t-68.5 -28t-69 28.5t-28 71.5z" />
<glyph unicode="&#x2019;" horiz-adv-x="415" d="M115 1024v6q37 58 57.5 107.5t22.5 72.5q-28 11 -46 35.5t-18 54.5q0 40 27.5 68.5t68.5 28.5t69 -29t28 -72q3 -109 -144 -313h-10z" />
<glyph unicode="&#x201a;" horiz-adv-x="448" d="M111 -205q37 58 57 107.5t22 72.5q-28 11 -45.5 36t-17.5 55q0 40 27.5 68t68.5 28t68.5 -29t27.5 -72q3 -110 -143 -313h-10l-55 41v6z" />
<glyph unicode="&#x201c;" horiz-adv-x="698" d="M104 1075q-3 110 144 314h10l55 -41v-7q-37 -58 -57.5 -107.5t-22.5 -72.5q28 -11 46 -35.5t18 -54.5q0 -40 -27.5 -68t-68.5 -28t-69 28.5t-28 71.5zM383 1075q-3 111 143 314h11l55 -41v-7q-37 -58 -57.5 -107.5t-22.5 -72.5q28 -11 45.5 -35.5t17.5 -54.5 q0 -40 -27.5 -68t-68.5 -28t-68.5 28.5t-27.5 71.5z" />
<glyph unicode="&#x201d;" horiz-adv-x="696" d="M115 1026v6q37 58 57.5 107.5t22.5 72.5q-28 11 -46 36t-18 55q0 40 27.5 68t68.5 28t69 -29t28 -72q3 -109 -144 -313h-10zM393 1026v6q37 58 57.5 107.5t22.5 72.5q-28 11 -45.5 36t-17.5 55q0 40 27.5 68t68.5 28t68.5 -29t27.5 -72q3 -110 -143 -313h-10z" />
<glyph unicode="&#x201e;" horiz-adv-x="727" d="M111 -207q37 58 57 107.5t22 72.5q-28 11 -45.5 35.5t-17.5 54.5q0 40 27.5 68.5t68.5 28.5t68.5 -29t27.5 -72q3 -110 -143 -313h-10l-55 41v6zM389 -207q37 58 57.5 107.5t22.5 72.5q-28 11 -45.5 35.5t-17.5 54.5q0 40 27.5 68.5t68.5 28.5t68.5 -29t27.5 -72 q3 -110 -143 -313h-11l-55 41v6z" />
<glyph unicode="&#x2022;" horiz-adv-x="716" d="M174 580q0 76 54 130t130 54q77 0 131 -54t54 -130t-54.5 -130.5t-130.5 -54.5t-130 54t-54 131z" />
<glyph unicode="&#x2026;" horiz-adv-x="1067" d="M121 86q0 40 28 68t68 28t68 -28t28 -68t-28 -68t-68 -28t-68 28t-28 68zM440 86q0 40 28.5 68t68.5 28t68 -28t28 -68t-28 -68t-68 -28t-68.5 28t-28.5 68zM756 86q0 40 28 68t68 28t68 -28t28 -68t-28 -68t-68 -28t-68 28t-28 68z" />
<glyph unicode="&#x202f;" horiz-adv-x="360" />
<glyph unicode="&#x2039;" horiz-adv-x="587" d="M92 604v21l299 342h8l56 -58v-6l-248 -289l248 -288v-9l-56 -55h-8z" />
<glyph unicode="&#x203a;" horiz-adv-x="587" d="M133 317v9l248 288l-248 289v6l55 58h9l299 -342v-21l-299 -342h-9z" />
<glyph unicode="&#x205f;" horiz-adv-x="450" />
<glyph unicode="&#x20ac;" horiz-adv-x="1570" d="M68 473l34 78h144q-8 49 -8 115q0 28 4 86h-148l-2 8l35 78h131q56 229 240.5 373.5t427.5 144.5q166 0 306 -68.5t234 -189.5v-8l-71 -52h-9q-79 104 -199 164t-259 60q-200 0 -355 -117.5t-208 -306.5h690l4 -9l-35 -77h-678q-6 -44 -6 -86q0 -53 10 -115h682l2 -8 l-35 -78h-626q62 -177 214 -286t343 -109q137 0 254.5 58t201.5 165l9 2l71 -57l2 -9q-95 -120 -235 -187t-305 -67q-236 0 -417 135.5t-245 354.5h-194z" />
<glyph unicode="&#x2122;" horiz-adv-x="1443" d="M68 1264v67h497v-67h-207v-600h-86v600h-204zM580 664l71 667h66l225 -549l225 549h66l72 -667h-84l-50 475l-196 -475h-68l-194 475l-51 -475h-82z" />
<glyph unicode="&#x25fc;" horiz-adv-x="1044" d="M0 0v1044h1044v-1044h-1044z" />
</font>
</defs>
</svg>
